ISO-10303-21;
HEADER;
/* Generated by software containing ST-Developer
 * from STEP Tools, Inc. (www.steptools.com) 
 */

FILE_DESCRIPTION(
/* description */ (''),
/* implementation_level */ '2;1');

FILE_NAME(
/* name */ 'Chamber.step',
/* time_stamp */ '2026-04-19T13:58:47-04:00',
/* author */ (''),
/* organization */ (''),
/* preprocessor_version */ 'ST-DEVELOPER v20.1',
/* originating_system */ 'Autodesk Translation Framework v14.24.0.0',
/* authorisation */ '');

FILE_SCHEMA (('AUTOMOTIVE_DESIGN { 1 0 10303 214 3 1 1 }'));
ENDSEC;

DATA;
#10=MECHANICAL_DESIGN_GEOMETRIC_PRESENTATION_REPRESENTATION('',(#13),#1544);
#11=SHAPE_REPRESENTATION_RELATIONSHIP('SRR','None',#1554,#12);
#12=ADVANCED_BREP_SHAPE_REPRESENTATION('',(#14),#1543);
#13=STYLED_ITEM('',(#1564),#14);
#14=MANIFOLD_SOLID_BREP('Body1',#830);
#15=B_SPLINE_CURVE_WITH_KNOTS('',3,(#1295,#1296,#1297,#1298,#1299,#1300,
#1301,#1302,#1303,#1304),.UNSPECIFIED.,.F.,.F.,(4,2,2,2,4),(0.,0.0287171057094763,
0.0574342114189526,0.0861510551833469,0.114867898947741),.UNSPECIFIED.);
#16=B_SPLINE_CURVE_WITH_KNOTS('',3,(#1305,#1306,#1307,#1308,#1309,#1310,
#1311,#1312,#1313,#1314,#1315,#1316,#1317,#1318,#1319,#1320,#1321,#1322,
#1323,#1324,#1325,#1326,#1327,#1328,#1329,#1330),.UNSPECIFIED.,.F.,.F.,
(4,2,2,2,2,2,2,2,2,2,2,2,4),(0.114867898947741,0.143584742712136,0.17230158647653,
0.201018692186006,0.229735797895482,0.258452107319572,0.287168416743662,
0.31588517791755,0.344601939091438,0.373318700265326,0.402035461439214,
0.430751770863304,0.459468080287393),.UNSPECIFIED.);
#17=B_SPLINE_CURVE_WITH_KNOTS('',3,(#1341,#1342,#1343,#1344,#1345,#1346,
#1347,#1348,#1349,#1350,#1351,#1352,#1353,#1354,#1355,#1356,#1357,#1358),
 .UNSPECIFIED.,.F.,.F.,(4,2,2,2,2,2,2,2,4),(0.404669193738709,0.50791206572211,
0.611154937705512,0.710246662591465,0.809338387477419,0.908430112363372,
1.00752183724933,1.11076470923273,1.21400758121613),.UNSPECIFIED.);
#18=B_SPLINE_CURVE_WITH_KNOTS('',3,(#1363,#1364,#1365,#1366,#1367,#1368,
#1369,#1370,#1371,#1372,#1373,#1374,#1375,#1376,#1377,#1378,#1379,#1380,
#1381),.UNSPECIFIED.,.F.,.F.,(4,2,2,2,3,2,2,2,4),(1.21400758121613,1.31725045319953,
1.42049332518293,1.51958505006889,1.61867677495484,1.71776849984079,1.81686022472674,
1.92010309671015,2.02334596869355),.UNSPECIFIED.);
#19=B_SPLINE_CURVE_WITH_KNOTS('',3,(#1456,#1457,#1458,#1459,#1460,#1461,
#1462,#1463,#1464,#1465,#1466,#1467,#1468,#1469,#1470,#1471,#1472,#1473),
 .UNSPECIFIED.,.F.,.F.,(4,2,2,2,2,2,2,2,4),(0.194322246724801,0.242902673741696,
0.291483100758592,0.340063797104097,0.388644493449601,0.437225189795105,
0.485805886140608,0.534386313157504,0.582966740174399),.UNSPECIFIED.);
#20=B_SPLINE_CURVE_WITH_KNOTS('',3,(#1478,#1479,#1480,#1481,#1482,#1483,
#1484,#1485,#1486,#1487),.UNSPECIFIED.,.F.,.F.,(4,2,2,2,4),(0.,0.0485806963455046,
0.0971613926910093,0.145741819707905,0.194322246724801),.UNSPECIFIED.);
#21=B_SPLINE_CURVE_WITH_KNOTS('',3,(#1488,#1489,#1490,#1491,#1492,#1493,
#1494,#1495,#1496,#1497),.UNSPECIFIED.,.F.,.F.,(4,2,2,2,4),(0.582966740174399,
0.631547167191295,0.68012759420819,0.728708290553694,0.777288986899197),
 .UNSPECIFIED.);
#22=CONICAL_SURFACE('',#863,0.176160399406066,0.0294940893717801);
#23=CONICAL_SURFACE('',#865,0.157932602522448,0.858377293062376);
#24=CONICAL_SURFACE('',#867,0.140736164525367,0.000536561319479687);
#25=CONICAL_SURFACE('',#869,0.0853621144362822,1.13500057511525);
#26=CONICAL_SURFACE('',#871,0.030024140932477,0.000536561319036202);
#27=CONICAL_SURFACE('',#876,0.057,1.02974425867665);
#28=CONICAL_SURFACE('',#879,0.057,1.02974425867665);
#29=CONICAL_SURFACE('',#925,0.23563540721814,0.209439510241121);
#30=CONICAL_SURFACE('',#927,0.215435407218217,0.785398163399215);
#31=CONICAL_SURFACE('',#931,0.126914173228372,1.13446401379711);
#32=CONICAL_SURFACE('',#934,0.233616119882344,0.209439510239324);
#33=CONICAL_SURFACE('',#937,0.213416119882344,0.785398163396518);
#34=CONICAL_SURFACE('',#941,0.119286220472438,1.13446401379629);
#35=FACE_BOUND('',#124,.T.);
#36=FACE_BOUND('',#125,.T.);
#37=FACE_BOUND('',#130,.T.);
#38=FACE_BOUND('',#138,.T.);
#39=FACE_BOUND('',#143,.T.);
#40=FACE_BOUND('',#147,.T.);
#41=FACE_BOUND('',#148,.T.);
#42=FACE_BOUND('',#149,.T.);
#43=FACE_BOUND('',#150,.T.);
#44=FACE_BOUND('',#151,.T.);
#45=FACE_BOUND('',#152,.T.);
#46=FACE_BOUND('',#153,.T.);
#47=FACE_BOUND('',#155,.T.);
#48=FACE_BOUND('',#164,.T.);
#49=FACE_BOUND('',#165,.T.);
#50=FACE_BOUND('',#166,.T.);
#51=FACE_BOUND('',#170,.T.);
#52=FACE_BOUND('',#171,.T.);
#53=FACE_BOUND('',#172,.T.);
#54=FACE_BOUND('',#174,.T.);
#55=FACE_BOUND('',#175,.T.);
#56=FACE_BOUND('',#177,.T.);
#57=FACE_BOUND('',#189,.T.);
#58=FACE_BOUND('',#191,.T.);
#59=PLANE('',#847);
#60=PLANE('',#851);
#61=PLANE('',#857);
#62=PLANE('',#861);
#63=PLANE('',#874);
#64=PLANE('',#882);
#65=PLANE('',#889);
#66=PLANE('',#898);
#67=PLANE('',#915);
#68=PLANE('',#920);
#69=PLANE('',#923);
#70=PLANE('',#944);
#71=PLANE('',#945);
#72=FACE_OUTER_BOUND('',#120,.T.);
#73=FACE_OUTER_BOUND('',#121,.T.);
#74=FACE_OUTER_BOUND('',#122,.T.);
#75=FACE_OUTER_BOUND('',#123,.T.);
#76=FACE_OUTER_BOUND('',#126,.T.);
#77=FACE_OUTER_BOUND('',#127,.T.);
#78=FACE_OUTER_BOUND('',#128,.T.);
#79=FACE_OUTER_BOUND('',#129,.T.);
#80=FACE_OUTER_BOUND('',#131,.T.);
#81=FACE_OUTER_BOUND('',#132,.T.);
#82=FACE_OUTER_BOUND('',#133,.T.);
#83=FACE_OUTER_BOUND('',#134,.T.);
#84=FACE_OUTER_BOUND('',#135,.T.);
#85=FACE_OUTER_BOUND('',#136,.T.);
#86=FACE_OUTER_BOUND('',#137,.T.);
#87=FACE_OUTER_BOUND('',#139,.T.);
#88=FACE_OUTER_BOUND('',#140,.T.);
#89=FACE_OUTER_BOUND('',#141,.T.);
#90=FACE_OUTER_BOUND('',#142,.T.);
#91=FACE_OUTER_BOUND('',#144,.T.);
#92=FACE_OUTER_BOUND('',#145,.T.);
#93=FACE_OUTER_BOUND('',#146,.T.);
#94=FACE_OUTER_BOUND('',#154,.T.);
#95=FACE_OUTER_BOUND('',#156,.T.);
#96=FACE_OUTER_BOUND('',#157,.T.);
#97=FACE_OUTER_BOUND('',#158,.T.);
#98=FACE_OUTER_BOUND('',#159,.T.);
#99=FACE_OUTER_BOUND('',#160,.T.);
#100=FACE_OUTER_BOUND('',#161,.T.);
#101=FACE_OUTER_BOUND('',#162,.T.);
#102=FACE_OUTER_BOUND('',#163,.T.);
#103=FACE_OUTER_BOUND('',#167,.T.);
#104=FACE_OUTER_BOUND('',#168,.T.);
#105=FACE_OUTER_BOUND('',#169,.T.);
#106=FACE_OUTER_BOUND('',#173,.T.);
#107=FACE_OUTER_BOUND('',#176,.T.);
#108=FACE_OUTER_BOUND('',#178,.T.);
#109=FACE_OUTER_BOUND('',#179,.T.);
#110=FACE_OUTER_BOUND('',#180,.T.);
#111=FACE_OUTER_BOUND('',#181,.T.);
#112=FACE_OUTER_BOUND('',#182,.T.);
#113=FACE_OUTER_BOUND('',#183,.T.);
#114=FACE_OUTER_BOUND('',#184,.T.);
#115=FACE_OUTER_BOUND('',#185,.T.);
#116=FACE_OUTER_BOUND('',#186,.T.);
#117=FACE_OUTER_BOUND('',#187,.T.);
#118=FACE_OUTER_BOUND('',#188,.T.);
#119=FACE_OUTER_BOUND('',#190,.T.);
#120=EDGE_LOOP('',(#534,#535,#536,#537));
#121=EDGE_LOOP('',(#538,#539,#540,#541));
#122=EDGE_LOOP('',(#542,#543,#544,#545));
#123=EDGE_LOOP('',(#546,#547,#548,#549,#550,#551,#552,#553));
#124=EDGE_LOOP('',(#554));
#125=EDGE_LOOP('',(#555));
#126=EDGE_LOOP('',(#556,#557,#558,#559));
#127=EDGE_LOOP('',(#560,#561,#562,#563));
#128=EDGE_LOOP('',(#564,#565,#566,#567));
#129=EDGE_LOOP('',(#568,#569,#570,#571,#572,#573,#574,#575));
#130=EDGE_LOOP('',(#576));
#131=EDGE_LOOP('',(#577,#578,#579,#580));
#132=EDGE_LOOP('',(#581,#582,#583,#584));
#133=EDGE_LOOP('',(#585,#586,#587,#588));
#134=EDGE_LOOP('',(#589,#590,#591,#592));
#135=EDGE_LOOP('',(#593,#594,#595,#596,#597));
#136=EDGE_LOOP('',(#598,#599,#600,#601));
#137=EDGE_LOOP('',(#602));
#138=EDGE_LOOP('',(#603));
#139=EDGE_LOOP('',(#604,#605,#606));
#140=EDGE_LOOP('',(#607,#608));
#141=EDGE_LOOP('',(#609,#610,#611,#612,#613,#614));
#142=EDGE_LOOP('',(#615));
#143=EDGE_LOOP('',(#616));
#144=EDGE_LOOP('',(#617,#618,#619,#620));
#145=EDGE_LOOP('',(#621,#622,#623,#624));
#146=EDGE_LOOP('',(#625,#626,#627,#628));
#147=EDGE_LOOP('',(#629));
#148=EDGE_LOOP('',(#630));
#149=EDGE_LOOP('',(#631));
#150=EDGE_LOOP('',(#632));
#151=EDGE_LOOP('',(#633));
#152=EDGE_LOOP('',(#634));
#153=EDGE_LOOP('',(#635));
#154=EDGE_LOOP('',(#636));
#155=EDGE_LOOP('',(#637));
#156=EDGE_LOOP('',(#638,#639,#640,#641));
#157=EDGE_LOOP('',(#642,#643,#644,#645));
#158=EDGE_LOOP('',(#646,#647,#648,#649));
#159=EDGE_LOOP('',(#650,#651,#652,#653));
#160=EDGE_LOOP('',(#654,#655,#656,#657));
#161=EDGE_LOOP('',(#658,#659,#660,#661));
#162=EDGE_LOOP('',(#662,#663,#664,#665));
#163=EDGE_LOOP('',(#666,#667,#668,#669,#670,#671));
#164=EDGE_LOOP('',(#672));
#165=EDGE_LOOP('',(#673));
#166=EDGE_LOOP('',(#674));
#167=EDGE_LOOP('',(#675,#676,#677,#678));
#168=EDGE_LOOP('',(#679,#680,#681,#682));
#169=EDGE_LOOP('',(#683,#684,#685,#686,#687,#688));
#170=EDGE_LOOP('',(#689));
#171=EDGE_LOOP('',(#690));
#172=EDGE_LOOP('',(#691));
#173=EDGE_LOOP('',(#692,#693,#694,#695,#696,#697,#698,#699,#700));
#174=EDGE_LOOP('',(#701,#702));
#175=EDGE_LOOP('',(#703,#704));
#176=EDGE_LOOP('',(#705));
#177=EDGE_LOOP('',(#706));
#178=EDGE_LOOP('',(#707,#708,#709,#710));
#179=EDGE_LOOP('',(#711,#712,#713,#714));
#180=EDGE_LOOP('',(#715,#716,#717,#718));
#181=EDGE_LOOP('',(#719,#720,#721,#722));
#182=EDGE_LOOP('',(#723,#724,#725,#726,#727,#728));
#183=EDGE_LOOP('',(#729,#730,#731,#732));
#184=EDGE_LOOP('',(#733,#734,#735,#736));
#185=EDGE_LOOP('',(#737,#738,#739,#740));
#186=EDGE_LOOP('',(#741,#742,#743,#744));
#187=EDGE_LOOP('',(#745,#746,#747,#748));
#188=EDGE_LOOP('',(#749,#750,#751,#752,#753,#754,#755,#756));
#189=EDGE_LOOP('',(#757));
#190=EDGE_LOOP('',(#758));
#191=EDGE_LOOP('',(#759));
#192=LINE('',#1210,#244);
#193=LINE('',#1213,#245);
#194=LINE('',#1216,#246);
#195=LINE('',#1218,#247);
#196=LINE('',#1219,#248);
#197=LINE('',#1225,#249);
#198=LINE('',#1228,#250);
#199=LINE('',#1230,#251);
#200=LINE('',#1232,#252);
#201=LINE('',#1234,#253);
#202=LINE('',#1236,#254);
#203=LINE('',#1238,#255);
#204=LINE('',#1239,#256);
#205=LINE('',#1249,#257);
#206=LINE('',#1252,#258);
#207=LINE('',#1254,#259);
#208=LINE('',#1255,#260);
#209=LINE('',#1260,#261);
#210=LINE('',#1263,#262);
#211=LINE('',#1265,#263);
#212=LINE('',#1267,#264);
#213=LINE('',#1269,#265);
#214=LINE('',#1271,#266);
#215=LINE('',#1272,#267);
#216=LINE('',#1277,#268);
#217=LINE('',#1281,#269);
#218=LINE('',#1285,#270);
#219=LINE('',#1289,#271);
#220=LINE('',#1293,#272);
#221=LINE('',#1333,#273);
#222=LINE('',#1384,#274);
#223=LINE('',#1393,#275);
#224=LINE('',#1397,#276);
#225=LINE('',#1420,#277);
#226=LINE('',#1425,#278);
#227=LINE('',#1429,#279);
#228=LINE('',#1433,#280);
#229=LINE('',#1437,#281);
#230=LINE('',#1441,#282);
#231=LINE('',#1445,#283);
#232=LINE('',#1454,#284);
#233=LINE('',#1475,#285);
#234=LINE('',#1503,#286);
#235=LINE('',#1507,#287);
#236=LINE('',#1511,#288);
#237=LINE('',#1515,#289);
#238=LINE('',#1518,#290);
#239=LINE('',#1523,#291);
#240=LINE('',#1527,#292);
#241=LINE('',#1531,#293);
#242=LINE('',#1535,#294);
#243=LINE('',#1538,#295);
#244=VECTOR('',#952,0.393700787401575);
#245=VECTOR('',#955,0.393700787401575);
#246=VECTOR('',#958,0.393700787401575);
#247=VECTOR('',#959,0.393700787401575);
#248=VECTOR('',#960,0.393700787401575);
#249=VECTOR('',#965,0.393700787401575);
#250=VECTOR('',#968,0.393700787401575);
#251=VECTOR('',#971,0.393700787401575);
#252=VECTOR('',#972,0.393700787401575);
#253=VECTOR('',#973,0.393700787401575);
#254=VECTOR('',#974,0.393700787401575);
#255=VECTOR('',#975,0.393700787401575);
#256=VECTOR('',#976,0.393700787401575);
#257=VECTOR('',#985,0.393700787401575);
#258=VECTOR('',#988,0.393700787401575);
#259=VECTOR('',#991,0.393700787401575);
#260=VECTOR('',#992,0.393700787401575);
#261=VECTOR('',#997,0.393700787401575);
#262=VECTOR('',#1002,0.393700787401575);
#263=VECTOR('',#1003,0.393700787401575);
#264=VECTOR('',#1004,0.393700787401575);
#265=VECTOR('',#1005,0.393700787401575);
#266=VECTOR('',#1006,0.393700787401575);
#267=VECTOR('',#1007,0.393700787401575);
#268=VECTOR('',#1012,0.176160399406066);
#269=VECTOR('',#1017,0.157932602522448);
#270=VECTOR('',#1022,0.140736164525367);
#271=VECTOR('',#1027,0.0853621144362822);
#272=VECTOR('',#1032,0.030024140932477);
#273=VECTOR('',#1035,0.25);
#274=VECTOR('',#1054,0.114);
#275=VECTOR('',#1065,0.556);
#276=VECTOR('',#1070,0.676);
#277=VECTOR('',#1097,0.499330708661417);
#278=VECTOR('',#1104,0.0755);
#279=VECTOR('',#1109,0.0755);
#280=VECTOR('',#1114,0.0755);
#281=VECTOR('',#1119,0.0755);
#282=VECTOR('',#1124,0.0755);
#283=VECTOR('',#1129,0.0755);
#284=VECTOR('',#1144,0.449330708661417);
#285=VECTOR('',#1145,0.449330708661417);
#286=VECTOR('',#1154,0.23563540721814);
#287=VECTOR('',#1159,0.215435407218217);
#288=VECTOR('',#1164,0.203100000000106);
#289=VECTOR('',#1169,0.126914173228372);
#290=VECTOR('',#1174,0.050728346456659);
#291=VECTOR('',#1179,0.233616119882344);
#292=VECTOR('',#1184,0.213416119882344);
#293=VECTOR('',#1189,0.2031);
#294=VECTOR('',#1194,0.119286220472438);
#295=VECTOR('',#1199,0.0354724409448793);
#296=CIRCLE('',#845,0.5);
#297=CIRCLE('',#846,0.5);
#298=CIRCLE('',#849,0.5);
#299=CIRCLE('',#850,0.5);
#300=CIRCLE('',#852,0.25);
#301=CIRCLE('',#853,0.176922425543829);
#302=CIRCLE('',#855,0.5);
#303=CIRCLE('',#856,0.5);
#304=CIRCLE('',#859,0.5);
#305=CIRCLE('',#860,0.5);
#306=CIRCLE('',#862,0.243499999999975);
#307=CIRCLE('',#864,0.175068818676052);
#308=CIRCLE('',#866,0.140796386368843);
#309=CIRCLE('',#868,0.14067594268189);
#310=CIRCLE('',#870,0.030048286190675);
#311=CIRCLE('',#873,0.25);
#312=CIRCLE('',#875,0.114);
#313=CIRCLE('',#877,0.114);
#314=CIRCLE('',#878,0.114);
#315=CIRCLE('',#880,0.114);
#316=CIRCLE('',#883,0.676);
#317=CIRCLE('',#884,0.556);
#318=CIRCLE('',#886,0.556);
#319=CIRCLE('',#888,0.676);
#320=CIRCLE('',#890,1.10556583145558);
#321=CIRCLE('',#891,1.10556583145558);
#322=CIRCLE('',#892,0.07525);
#323=CIRCLE('',#893,0.07525);
#324=CIRCLE('',#894,0.07525);
#325=CIRCLE('',#895,0.07525);
#326=CIRCLE('',#896,0.07525);
#327=CIRCLE('',#897,0.07525);
#328=CIRCLE('',#899,0.499330708661417);
#329=CIRCLE('',#900,0.449330708661417);
#330=CIRCLE('',#902,0.499330708661417);
#331=CIRCLE('',#904,0.07525);
#332=CIRCLE('',#906,0.07525);
#333=CIRCLE('',#908,0.07525);
#334=CIRCLE('',#910,0.07525);
#335=CIRCLE('',#912,0.07525);
#336=CIRCLE('',#914,0.07525);
#337=CIRCLE('',#916,1.10556583145558);
#338=CIRCLE('',#918,1.10556583145558);
#339=CIRCLE('',#922,0.449330708661417);
#340=CIRCLE('',#924,0.0354724409448819);
#341=CIRCLE('',#926,0.22777081443628);
#342=CIRCLE('',#928,0.203100000000155);
#343=CIRCLE('',#930,0.203100000000057);
#344=CIRCLE('',#932,0.0507283464566874);
#345=CIRCLE('',#935,0.2435);
#346=CIRCLE('',#936,0.223732239764688);
#347=CIRCLE('',#938,0.2031);
#348=CIRCLE('',#940,0.2031);
#349=CIRCLE('',#942,0.0354724409448767);
#350=VERTEX_POINT('',#1206);
#351=VERTEX_POINT('',#1207);
#352=VERTEX_POINT('',#1209);
#353=VERTEX_POINT('',#1211);
#354=VERTEX_POINT('',#1215);
#355=VERTEX_POINT('',#1217);
#356=VERTEX_POINT('',#1221);
#357=VERTEX_POINT('',#1222);
#358=VERTEX_POINT('',#1224);
#359=VERTEX_POINT('',#1226);
#360=VERTEX_POINT('',#1231);
#361=VERTEX_POINT('',#1233);
#362=VERTEX_POINT('',#1235);
#363=VERTEX_POINT('',#1237);
#364=VERTEX_POINT('',#1240);
#365=VERTEX_POINT('',#1242);
#366=VERTEX_POINT('',#1245);
#367=VERTEX_POINT('',#1246);
#368=VERTEX_POINT('',#1248);
#369=VERTEX_POINT('',#1250);
#370=VERTEX_POINT('',#1257);
#371=VERTEX_POINT('',#1259);
#372=VERTEX_POINT('',#1264);
#373=VERTEX_POINT('',#1266);
#374=VERTEX_POINT('',#1268);
#375=VERTEX_POINT('',#1270);
#376=VERTEX_POINT('',#1273);
#377=VERTEX_POINT('',#1276);
#378=VERTEX_POINT('',#1280);
#379=VERTEX_POINT('',#1284);
#380=VERTEX_POINT('',#1288);
#381=VERTEX_POINT('',#1292);
#382=VERTEX_POINT('',#1294);
#383=VERTEX_POINT('',#1332);
#384=VERTEX_POINT('',#1336);
#385=VERTEX_POINT('',#1339);
#386=VERTEX_POINT('',#1340);
#387=VERTEX_POINT('',#1359);
#388=VERTEX_POINT('',#1386);
#389=VERTEX_POINT('',#1388);
#390=VERTEX_POINT('',#1391);
#391=VERTEX_POINT('',#1395);
#392=VERTEX_POINT('',#1401);
#393=VERTEX_POINT('',#1403);
#394=VERTEX_POINT('',#1405);
#395=VERTEX_POINT('',#1407);
#396=VERTEX_POINT('',#1409);
#397=VERTEX_POINT('',#1411);
#398=VERTEX_POINT('',#1414);
#399=VERTEX_POINT('',#1416);
#400=VERTEX_POINT('',#1419);
#401=VERTEX_POINT('',#1423);
#402=VERTEX_POINT('',#1427);
#403=VERTEX_POINT('',#1431);
#404=VERTEX_POINT('',#1435);
#405=VERTEX_POINT('',#1439);
#406=VERTEX_POINT('',#1443);
#407=VERTEX_POINT('',#1453);
#408=VERTEX_POINT('',#1455);
#409=VERTEX_POINT('',#1474);
#410=VERTEX_POINT('',#1477);
#411=VERTEX_POINT('',#1499);
#412=VERTEX_POINT('',#1502);
#413=VERTEX_POINT('',#1506);
#414=VERTEX_POINT('',#1510);
#415=VERTEX_POINT('',#1514);
#416=VERTEX_POINT('',#1520);
#417=VERTEX_POINT('',#1522);
#418=VERTEX_POINT('',#1526);
#419=VERTEX_POINT('',#1530);
#420=VERTEX_POINT('',#1534);
#421=EDGE_CURVE('',#350,#351,#296,.T.);
#422=EDGE_CURVE('',#351,#352,#192,.T.);
#423=EDGE_CURVE('',#352,#353,#297,.F.);
#424=EDGE_CURVE('',#353,#350,#193,.T.);
#425=EDGE_CURVE('',#353,#354,#194,.T.);
#426=EDGE_CURVE('',#355,#354,#195,.T.);
#427=EDGE_CURVE('',#350,#355,#196,.T.);
#428=EDGE_CURVE('',#356,#357,#298,.T.);
#429=EDGE_CURVE('',#357,#358,#197,.T.);
#430=EDGE_CURVE('',#359,#358,#299,.T.);
#431=EDGE_CURVE('',#359,#356,#198,.T.);
#432=EDGE_CURVE('',#356,#351,#199,.T.);
#433=EDGE_CURVE('',#360,#359,#200,.T.);
#434=EDGE_CURVE('',#361,#360,#201,.T.);
#435=EDGE_CURVE('',#362,#361,#202,.T.);
#436=EDGE_CURVE('',#362,#363,#203,.T.);
#437=EDGE_CURVE('',#352,#363,#204,.T.);
#438=EDGE_CURVE('',#364,#364,#300,.T.);
#439=EDGE_CURVE('',#365,#365,#301,.T.);
#440=EDGE_CURVE('',#366,#367,#302,.T.);
#441=EDGE_CURVE('',#367,#368,#205,.T.);
#442=EDGE_CURVE('',#368,#369,#303,.F.);
#443=EDGE_CURVE('',#369,#366,#206,.T.);
#444=EDGE_CURVE('',#357,#366,#207,.T.);
#445=EDGE_CURVE('',#369,#358,#208,.T.);
#446=EDGE_CURVE('',#370,#354,#304,.T.);
#447=EDGE_CURVE('',#370,#371,#209,.T.);
#448=EDGE_CURVE('',#371,#355,#305,.T.);
#449=EDGE_CURVE('',#367,#371,#210,.T.);
#450=EDGE_CURVE('',#372,#370,#211,.T.);
#451=EDGE_CURVE('',#372,#373,#212,.T.);
#452=EDGE_CURVE('',#373,#374,#213,.T.);
#453=EDGE_CURVE('',#374,#375,#214,.T.);
#454=EDGE_CURVE('',#368,#375,#215,.T.);
#455=EDGE_CURVE('',#376,#376,#306,.T.);
#456=EDGE_CURVE('',#365,#377,#216,.T.);
#457=EDGE_CURVE('',#377,#377,#307,.T.);
#458=EDGE_CURVE('',#377,#378,#217,.T.);
#459=EDGE_CURVE('',#378,#378,#308,.T.);
#460=EDGE_CURVE('',#378,#379,#218,.T.);
#461=EDGE_CURVE('',#379,#379,#309,.T.);
#462=EDGE_CURVE('',#379,#380,#219,.T.);
#463=EDGE_CURVE('',#380,#380,#310,.T.);
#464=EDGE_CURVE('',#380,#381,#220,.T.);
#465=EDGE_CURVE('',#382,#381,#15,.T.);
#466=EDGE_CURVE('',#381,#382,#16,.T.);
#467=EDGE_CURVE('',#364,#383,#221,.T.);
#468=EDGE_CURVE('',#383,#383,#311,.T.);
#469=EDGE_CURVE('',#384,#384,#312,.T.);
#470=EDGE_CURVE('',#385,#386,#17,.T.);
#471=EDGE_CURVE('',#387,#385,#313,.T.);
#472=EDGE_CURVE('',#386,#387,#314,.T.);
#473=EDGE_CURVE('',#386,#385,#18,.T.);
#474=EDGE_CURVE('',#385,#386,#315,.T.);
#475=EDGE_CURVE('',#384,#387,#222,.T.);
#476=EDGE_CURVE('',#388,#388,#316,.T.);
#477=EDGE_CURVE('',#389,#389,#317,.T.);
#478=EDGE_CURVE('',#390,#390,#318,.T.);
#479=EDGE_CURVE('',#390,#389,#223,.T.);
#480=EDGE_CURVE('',#391,#391,#319,.T.);
#481=EDGE_CURVE('',#391,#388,#224,.T.);
#482=EDGE_CURVE('',#361,#374,#320,.T.);
#483=EDGE_CURVE('',#373,#362,#321,.T.);
#484=EDGE_CURVE('',#392,#392,#322,.F.);
#485=EDGE_CURVE('',#393,#393,#323,.F.);
#486=EDGE_CURVE('',#394,#394,#324,.F.);
#487=EDGE_CURVE('',#395,#395,#325,.F.);
#488=EDGE_CURVE('',#396,#396,#326,.F.);
#489=EDGE_CURVE('',#397,#397,#327,.F.);
#490=EDGE_CURVE('',#398,#398,#328,.T.);
#491=EDGE_CURVE('',#399,#399,#329,.T.);
#492=EDGE_CURVE('',#398,#400,#225,.T.);
#493=EDGE_CURVE('',#400,#400,#330,.T.);
#494=EDGE_CURVE('',#401,#401,#331,.F.);
#495=EDGE_CURVE('',#401,#397,#226,.T.);
#496=EDGE_CURVE('',#402,#402,#332,.F.);
#497=EDGE_CURVE('',#402,#396,#227,.T.);
#498=EDGE_CURVE('',#403,#403,#333,.F.);
#499=EDGE_CURVE('',#403,#395,#228,.T.);
#500=EDGE_CURVE('',#404,#404,#334,.F.);
#501=EDGE_CURVE('',#404,#394,#229,.T.);
#502=EDGE_CURVE('',#405,#405,#335,.F.);
#503=EDGE_CURVE('',#405,#393,#230,.T.);
#504=EDGE_CURVE('',#406,#406,#336,.F.);
#505=EDGE_CURVE('',#406,#392,#231,.T.);
#506=EDGE_CURVE('',#375,#360,#337,.T.);
#507=EDGE_CURVE('',#363,#372,#338,.T.);
#508=EDGE_CURVE('',#399,#407,#232,.T.);
#509=EDGE_CURVE('',#408,#407,#19,.T.);
#510=EDGE_CURVE('',#408,#409,#233,.T.);
#511=EDGE_CURVE('',#409,#409,#339,.T.);
#512=EDGE_CURVE('',#410,#408,#20,.T.);
#513=EDGE_CURVE('',#407,#410,#21,.T.);
#514=EDGE_CURVE('',#411,#411,#340,.T.);
#515=EDGE_CURVE('',#376,#412,#234,.T.);
#516=EDGE_CURVE('',#412,#412,#341,.T.);
#517=EDGE_CURVE('',#412,#413,#235,.T.);
#518=EDGE_CURVE('',#413,#413,#342,.T.);
#519=EDGE_CURVE('',#413,#414,#236,.T.);
#520=EDGE_CURVE('',#414,#414,#343,.T.);
#521=EDGE_CURVE('',#414,#415,#237,.T.);
#522=EDGE_CURVE('',#415,#415,#344,.T.);
#523=EDGE_CURVE('',#415,#408,#238,.T.);
#524=EDGE_CURVE('',#416,#416,#345,.T.);
#525=EDGE_CURVE('',#416,#417,#239,.T.);
#526=EDGE_CURVE('',#417,#417,#346,.T.);
#527=EDGE_CURVE('',#417,#418,#240,.T.);
#528=EDGE_CURVE('',#418,#418,#347,.T.);
#529=EDGE_CURVE('',#418,#419,#241,.T.);
#530=EDGE_CURVE('',#419,#419,#348,.T.);
#531=EDGE_CURVE('',#419,#420,#242,.T.);
#532=EDGE_CURVE('',#420,#420,#349,.T.);
#533=EDGE_CURVE('',#420,#411,#243,.T.);
#534=ORIENTED_EDGE('',*,*,#421,.T.);
#535=ORIENTED_EDGE('',*,*,#422,.T.);
#536=ORIENTED_EDGE('',*,*,#423,.T.);
#537=ORIENTED_EDGE('',*,*,#424,.T.);
#538=ORIENTED_EDGE('',*,*,#424,.F.);
#539=ORIENTED_EDGE('',*,*,#425,.T.);
#540=ORIENTED_EDGE('',*,*,#426,.F.);
#541=ORIENTED_EDGE('',*,*,#427,.F.);
#542=ORIENTED_EDGE('',*,*,#428,.T.);
#543=ORIENTED_EDGE('',*,*,#429,.T.);
#544=ORIENTED_EDGE('',*,*,#430,.F.);
#545=ORIENTED_EDGE('',*,*,#431,.T.);
#546=ORIENTED_EDGE('',*,*,#422,.F.);
#547=ORIENTED_EDGE('',*,*,#432,.F.);
#548=ORIENTED_EDGE('',*,*,#431,.F.);
#549=ORIENTED_EDGE('',*,*,#433,.F.);
#550=ORIENTED_EDGE('',*,*,#434,.F.);
#551=ORIENTED_EDGE('',*,*,#435,.F.);
#552=ORIENTED_EDGE('',*,*,#436,.T.);
#553=ORIENTED_EDGE('',*,*,#437,.F.);
#554=ORIENTED_EDGE('',*,*,#438,.T.);
#555=ORIENTED_EDGE('',*,*,#439,.T.);
#556=ORIENTED_EDGE('',*,*,#440,.T.);
#557=ORIENTED_EDGE('',*,*,#441,.T.);
#558=ORIENTED_EDGE('',*,*,#442,.T.);
#559=ORIENTED_EDGE('',*,*,#443,.T.);
#560=ORIENTED_EDGE('',*,*,#429,.F.);
#561=ORIENTED_EDGE('',*,*,#444,.T.);
#562=ORIENTED_EDGE('',*,*,#443,.F.);
#563=ORIENTED_EDGE('',*,*,#445,.T.);
#564=ORIENTED_EDGE('',*,*,#446,.F.);
#565=ORIENTED_EDGE('',*,*,#447,.T.);
#566=ORIENTED_EDGE('',*,*,#448,.T.);
#567=ORIENTED_EDGE('',*,*,#426,.T.);
#568=ORIENTED_EDGE('',*,*,#441,.F.);
#569=ORIENTED_EDGE('',*,*,#449,.T.);
#570=ORIENTED_EDGE('',*,*,#447,.F.);
#571=ORIENTED_EDGE('',*,*,#450,.F.);
#572=ORIENTED_EDGE('',*,*,#451,.T.);
#573=ORIENTED_EDGE('',*,*,#452,.T.);
#574=ORIENTED_EDGE('',*,*,#453,.T.);
#575=ORIENTED_EDGE('',*,*,#454,.F.);
#576=ORIENTED_EDGE('',*,*,#455,.T.);
#577=ORIENTED_EDGE('',*,*,#439,.F.);
#578=ORIENTED_EDGE('',*,*,#456,.T.);
#579=ORIENTED_EDGE('',*,*,#457,.T.);
#580=ORIENTED_EDGE('',*,*,#456,.F.);
#581=ORIENTED_EDGE('',*,*,#457,.F.);
#582=ORIENTED_EDGE('',*,*,#458,.T.);
#583=ORIENTED_EDGE('',*,*,#459,.T.);
#584=ORIENTED_EDGE('',*,*,#458,.F.);
#585=ORIENTED_EDGE('',*,*,#459,.F.);
#586=ORIENTED_EDGE('',*,*,#460,.T.);
#587=ORIENTED_EDGE('',*,*,#461,.T.);
#588=ORIENTED_EDGE('',*,*,#460,.F.);
#589=ORIENTED_EDGE('',*,*,#461,.F.);
#590=ORIENTED_EDGE('',*,*,#462,.T.);
#591=ORIENTED_EDGE('',*,*,#463,.T.);
#592=ORIENTED_EDGE('',*,*,#462,.F.);
#593=ORIENTED_EDGE('',*,*,#463,.F.);
#594=ORIENTED_EDGE('',*,*,#464,.T.);
#595=ORIENTED_EDGE('',*,*,#465,.F.);
#596=ORIENTED_EDGE('',*,*,#466,.F.);
#597=ORIENTED_EDGE('',*,*,#464,.F.);
#598=ORIENTED_EDGE('',*,*,#438,.F.);
#599=ORIENTED_EDGE('',*,*,#467,.T.);
#600=ORIENTED_EDGE('',*,*,#468,.T.);
#601=ORIENTED_EDGE('',*,*,#467,.F.);
#602=ORIENTED_EDGE('',*,*,#468,.F.);
#603=ORIENTED_EDGE('',*,*,#469,.F.);
#604=ORIENTED_EDGE('',*,*,#470,.F.);
#605=ORIENTED_EDGE('',*,*,#471,.F.);
#606=ORIENTED_EDGE('',*,*,#472,.F.);
#607=ORIENTED_EDGE('',*,*,#473,.F.);
#608=ORIENTED_EDGE('',*,*,#474,.F.);
#609=ORIENTED_EDGE('',*,*,#469,.T.);
#610=ORIENTED_EDGE('',*,*,#475,.T.);
#611=ORIENTED_EDGE('',*,*,#471,.T.);
#612=ORIENTED_EDGE('',*,*,#474,.T.);
#613=ORIENTED_EDGE('',*,*,#472,.T.);
#614=ORIENTED_EDGE('',*,*,#475,.F.);
#615=ORIENTED_EDGE('',*,*,#476,.F.);
#616=ORIENTED_EDGE('',*,*,#477,.T.);
#617=ORIENTED_EDGE('',*,*,#478,.F.);
#618=ORIENTED_EDGE('',*,*,#479,.T.);
#619=ORIENTED_EDGE('',*,*,#477,.F.);
#620=ORIENTED_EDGE('',*,*,#479,.F.);
#621=ORIENTED_EDGE('',*,*,#480,.F.);
#622=ORIENTED_EDGE('',*,*,#481,.T.);
#623=ORIENTED_EDGE('',*,*,#476,.T.);
#624=ORIENTED_EDGE('',*,*,#481,.F.);
#625=ORIENTED_EDGE('',*,*,#435,.T.);
#626=ORIENTED_EDGE('',*,*,#482,.T.);
#627=ORIENTED_EDGE('',*,*,#452,.F.);
#628=ORIENTED_EDGE('',*,*,#483,.T.);
#629=ORIENTED_EDGE('',*,*,#484,.T.);
#630=ORIENTED_EDGE('',*,*,#485,.T.);
#631=ORIENTED_EDGE('',*,*,#486,.T.);
#632=ORIENTED_EDGE('',*,*,#487,.T.);
#633=ORIENTED_EDGE('',*,*,#488,.T.);
#634=ORIENTED_EDGE('',*,*,#489,.T.);
#635=ORIENTED_EDGE('',*,*,#480,.T.);
#636=ORIENTED_EDGE('',*,*,#490,.T.);
#637=ORIENTED_EDGE('',*,*,#491,.F.);
#638=ORIENTED_EDGE('',*,*,#490,.F.);
#639=ORIENTED_EDGE('',*,*,#492,.T.);
#640=ORIENTED_EDGE('',*,*,#493,.F.);
#641=ORIENTED_EDGE('',*,*,#492,.F.);
#642=ORIENTED_EDGE('',*,*,#494,.F.);
#643=ORIENTED_EDGE('',*,*,#495,.T.);
#644=ORIENTED_EDGE('',*,*,#489,.F.);
#645=ORIENTED_EDGE('',*,*,#495,.F.);
#646=ORIENTED_EDGE('',*,*,#496,.F.);
#647=ORIENTED_EDGE('',*,*,#497,.T.);
#648=ORIENTED_EDGE('',*,*,#488,.F.);
#649=ORIENTED_EDGE('',*,*,#497,.F.);
#650=ORIENTED_EDGE('',*,*,#498,.F.);
#651=ORIENTED_EDGE('',*,*,#499,.T.);
#652=ORIENTED_EDGE('',*,*,#487,.F.);
#653=ORIENTED_EDGE('',*,*,#499,.F.);
#654=ORIENTED_EDGE('',*,*,#500,.F.);
#655=ORIENTED_EDGE('',*,*,#501,.T.);
#656=ORIENTED_EDGE('',*,*,#486,.F.);
#657=ORIENTED_EDGE('',*,*,#501,.F.);
#658=ORIENTED_EDGE('',*,*,#502,.F.);
#659=ORIENTED_EDGE('',*,*,#503,.T.);
#660=ORIENTED_EDGE('',*,*,#485,.F.);
#661=ORIENTED_EDGE('',*,*,#503,.F.);
#662=ORIENTED_EDGE('',*,*,#504,.F.);
#663=ORIENTED_EDGE('',*,*,#505,.T.);
#664=ORIENTED_EDGE('',*,*,#484,.F.);
#665=ORIENTED_EDGE('',*,*,#505,.F.);
#666=ORIENTED_EDGE('',*,*,#506,.T.);
#667=ORIENTED_EDGE('',*,*,#433,.T.);
#668=ORIENTED_EDGE('',*,*,#430,.T.);
#669=ORIENTED_EDGE('',*,*,#445,.F.);
#670=ORIENTED_EDGE('',*,*,#442,.F.);
#671=ORIENTED_EDGE('',*,*,#454,.T.);
#672=ORIENTED_EDGE('',*,*,#494,.T.);
#673=ORIENTED_EDGE('',*,*,#502,.T.);
#674=ORIENTED_EDGE('',*,*,#504,.T.);
#675=ORIENTED_EDGE('',*,*,#483,.F.);
#676=ORIENTED_EDGE('',*,*,#451,.F.);
#677=ORIENTED_EDGE('',*,*,#507,.F.);
#678=ORIENTED_EDGE('',*,*,#436,.F.);
#679=ORIENTED_EDGE('',*,*,#482,.F.);
#680=ORIENTED_EDGE('',*,*,#434,.T.);
#681=ORIENTED_EDGE('',*,*,#506,.F.);
#682=ORIENTED_EDGE('',*,*,#453,.F.);
#683=ORIENTED_EDGE('',*,*,#507,.T.);
#684=ORIENTED_EDGE('',*,*,#450,.T.);
#685=ORIENTED_EDGE('',*,*,#446,.T.);
#686=ORIENTED_EDGE('',*,*,#425,.F.);
#687=ORIENTED_EDGE('',*,*,#423,.F.);
#688=ORIENTED_EDGE('',*,*,#437,.T.);
#689=ORIENTED_EDGE('',*,*,#496,.T.);
#690=ORIENTED_EDGE('',*,*,#498,.T.);
#691=ORIENTED_EDGE('',*,*,#500,.T.);
#692=ORIENTED_EDGE('',*,*,#491,.T.);
#693=ORIENTED_EDGE('',*,*,#508,.T.);
#694=ORIENTED_EDGE('',*,*,#509,.F.);
#695=ORIENTED_EDGE('',*,*,#510,.T.);
#696=ORIENTED_EDGE('',*,*,#511,.T.);
#697=ORIENTED_EDGE('',*,*,#510,.F.);
#698=ORIENTED_EDGE('',*,*,#512,.F.);
#699=ORIENTED_EDGE('',*,*,#513,.F.);
#700=ORIENTED_EDGE('',*,*,#508,.F.);
#701=ORIENTED_EDGE('',*,*,#465,.T.);
#702=ORIENTED_EDGE('',*,*,#466,.T.);
#703=ORIENTED_EDGE('',*,*,#470,.T.);
#704=ORIENTED_EDGE('',*,*,#473,.T.);
#705=ORIENTED_EDGE('',*,*,#511,.F.);
#706=ORIENTED_EDGE('',*,*,#514,.F.);
#707=ORIENTED_EDGE('',*,*,#455,.F.);
#708=ORIENTED_EDGE('',*,*,#515,.T.);
#709=ORIENTED_EDGE('',*,*,#516,.T.);
#710=ORIENTED_EDGE('',*,*,#515,.F.);
#711=ORIENTED_EDGE('',*,*,#516,.F.);
#712=ORIENTED_EDGE('',*,*,#517,.T.);
#713=ORIENTED_EDGE('',*,*,#518,.T.);
#714=ORIENTED_EDGE('',*,*,#517,.F.);
#715=ORIENTED_EDGE('',*,*,#518,.F.);
#716=ORIENTED_EDGE('',*,*,#519,.T.);
#717=ORIENTED_EDGE('',*,*,#520,.T.);
#718=ORIENTED_EDGE('',*,*,#519,.F.);
#719=ORIENTED_EDGE('',*,*,#520,.F.);
#720=ORIENTED_EDGE('',*,*,#521,.T.);
#721=ORIENTED_EDGE('',*,*,#522,.T.);
#722=ORIENTED_EDGE('',*,*,#521,.F.);
#723=ORIENTED_EDGE('',*,*,#522,.F.);
#724=ORIENTED_EDGE('',*,*,#523,.T.);
#725=ORIENTED_EDGE('',*,*,#509,.T.);
#726=ORIENTED_EDGE('',*,*,#513,.T.);
#727=ORIENTED_EDGE('',*,*,#512,.T.);
#728=ORIENTED_EDGE('',*,*,#523,.F.);
#729=ORIENTED_EDGE('',*,*,#524,.F.);
#730=ORIENTED_EDGE('',*,*,#525,.T.);
#731=ORIENTED_EDGE('',*,*,#526,.T.);
#732=ORIENTED_EDGE('',*,*,#525,.F.);
#733=ORIENTED_EDGE('',*,*,#526,.F.);
#734=ORIENTED_EDGE('',*,*,#527,.T.);
#735=ORIENTED_EDGE('',*,*,#528,.T.);
#736=ORIENTED_EDGE('',*,*,#527,.F.);
#737=ORIENTED_EDGE('',*,*,#528,.F.);
#738=ORIENTED_EDGE('',*,*,#529,.T.);
#739=ORIENTED_EDGE('',*,*,#530,.T.);
#740=ORIENTED_EDGE('',*,*,#529,.F.);
#741=ORIENTED_EDGE('',*,*,#530,.F.);
#742=ORIENTED_EDGE('',*,*,#531,.T.);
#743=ORIENTED_EDGE('',*,*,#532,.T.);
#744=ORIENTED_EDGE('',*,*,#531,.F.);
#745=ORIENTED_EDGE('',*,*,#532,.F.);
#746=ORIENTED_EDGE('',*,*,#533,.T.);
#747=ORIENTED_EDGE('',*,*,#514,.T.);
#748=ORIENTED_EDGE('',*,*,#533,.F.);
#749=ORIENTED_EDGE('',*,*,#421,.F.);
#750=ORIENTED_EDGE('',*,*,#427,.T.);
#751=ORIENTED_EDGE('',*,*,#448,.F.);
#752=ORIENTED_EDGE('',*,*,#449,.F.);
#753=ORIENTED_EDGE('',*,*,#440,.F.);
#754=ORIENTED_EDGE('',*,*,#444,.F.);
#755=ORIENTED_EDGE('',*,*,#428,.F.);
#756=ORIENTED_EDGE('',*,*,#432,.T.);
#757=ORIENTED_EDGE('',*,*,#524,.T.);
#758=ORIENTED_EDGE('',*,*,#478,.T.);
#759=ORIENTED_EDGE('',*,*,#493,.T.);
#760=CYLINDRICAL_SURFACE('',#844,0.5);
#761=CYLINDRICAL_SURFACE('',#848,0.5);
#762=CYLINDRICAL_SURFACE('',#854,0.5);
#763=CYLINDRICAL_SURFACE('',#858,0.5);
#764=CYLINDRICAL_SURFACE('',#872,0.25);
#765=CYLINDRICAL_SURFACE('',#881,0.114);
#766=CYLINDRICAL_SURFACE('',#885,0.556);
#767=CYLINDRICAL_SURFACE('',#887,0.676);
#768=CYLINDRICAL_SURFACE('',#901,0.499330708661417);
#769=CYLINDRICAL_SURFACE('',#903,0.07525);
#770=CYLINDRICAL_SURFACE('',#905,0.07525);
#771=CYLINDRICAL_SURFACE('',#907,0.07525);
#772=CYLINDRICAL_SURFACE('',#909,0.07525);
#773=CYLINDRICAL_SURFACE('',#911,0.07525);
#774=CYLINDRICAL_SURFACE('',#913,0.07525);
#775=CYLINDRICAL_SURFACE('',#917,1.10556583145558);
#776=CYLINDRICAL_SURFACE('',#919,1.10556583145558);
#777=CYLINDRICAL_SURFACE('',#921,0.449330708661417);
#778=CYLINDRICAL_SURFACE('',#929,0.203100000000106);
#779=CYLINDRICAL_SURFACE('',#933,0.050728346456659);
#780=CYLINDRICAL_SURFACE('',#939,0.2031);
#781=CYLINDRICAL_SURFACE('',#943,0.0354724409448793);
#782=ADVANCED_FACE('',(#72),#760,.T.);
#783=ADVANCED_FACE('',(#73),#59,.T.);
#784=ADVANCED_FACE('',(#74),#761,.T.);
#785=ADVANCED_FACE('',(#75,#35,#36),#60,.T.);
#786=ADVANCED_FACE('',(#76),#762,.T.);
#787=ADVANCED_FACE('',(#77),#61,.T.);
#788=ADVANCED_FACE('',(#78),#763,.T.);
#789=ADVANCED_FACE('',(#79,#37),#62,.T.);
#790=ADVANCED_FACE('',(#80),#22,.F.);
#791=ADVANCED_FACE('',(#81),#23,.F.);
#792=ADVANCED_FACE('',(#82),#24,.F.);
#793=ADVANCED_FACE('',(#83),#25,.F.);
#794=ADVANCED_FACE('',(#84),#26,.F.);
#795=ADVANCED_FACE('',(#85),#764,.F.);
#796=ADVANCED_FACE('',(#86,#38),#63,.F.);
#797=ADVANCED_FACE('',(#87),#27,.F.);
#798=ADVANCED_FACE('',(#88),#28,.F.);
#799=ADVANCED_FACE('',(#89),#765,.F.);
#800=ADVANCED_FACE('',(#90,#39),#64,.F.);
#801=ADVANCED_FACE('',(#91),#766,.T.);
#802=ADVANCED_FACE('',(#92),#767,.F.);
#803=ADVANCED_FACE('',(#93,#40,#41,#42,#43,#44,#45,#46),#65,.F.);
#804=ADVANCED_FACE('',(#94,#47),#66,.F.);
#805=ADVANCED_FACE('',(#95),#768,.F.);
#806=ADVANCED_FACE('',(#96),#769,.F.);
#807=ADVANCED_FACE('',(#97),#770,.F.);
#808=ADVANCED_FACE('',(#98),#771,.F.);
#809=ADVANCED_FACE('',(#99),#772,.F.);
#810=ADVANCED_FACE('',(#100),#773,.F.);
#811=ADVANCED_FACE('',(#101),#774,.F.);
#812=ADVANCED_FACE('',(#102,#48,#49,#50),#67,.F.);
#813=ADVANCED_FACE('',(#103),#775,.T.);
#814=ADVANCED_FACE('',(#104),#776,.T.);
#815=ADVANCED_FACE('',(#105,#51,#52,#53),#68,.F.);
#816=ADVANCED_FACE('',(#106,#54,#55),#777,.F.);
#817=ADVANCED_FACE('',(#107,#56),#69,.T.);
#818=ADVANCED_FACE('',(#108),#29,.F.);
#819=ADVANCED_FACE('',(#109),#30,.F.);
#820=ADVANCED_FACE('',(#110),#778,.F.);
#821=ADVANCED_FACE('',(#111),#31,.F.);
#822=ADVANCED_FACE('',(#112),#779,.F.);
#823=ADVANCED_FACE('',(#113),#32,.F.);
#824=ADVANCED_FACE('',(#114),#33,.F.);
#825=ADVANCED_FACE('',(#115),#780,.F.);
#826=ADVANCED_FACE('',(#116),#34,.F.);
#827=ADVANCED_FACE('',(#117),#781,.F.);
#828=ADVANCED_FACE('',(#118,#57),#70,.T.);
#829=ADVANCED_FACE('',(#119,#58),#71,.F.);
#830=CLOSED_SHELL('',(#782,#783,#784,#785,#786,#787,#788,#789,#790,#791,
#792,#793,#794,#795,#796,#797,#798,#799,#800,#801,#802,#803,#804,#805,#806,
#807,#808,#809,#810,#811,#812,#813,#814,#815,#816,#817,#818,#819,#820,#821,
#822,#823,#824,#825,#826,#827,#828,#829));
#831=DERIVED_UNIT_ELEMENT(#833,1.);
#832=DERIVED_UNIT_ELEMENT(#1548,-3.);
#833=(
MASS_UNIT()
NAMED_UNIT(*)
SI_UNIT(.KILO.,.GRAM.)
);
#834=DERIVED_UNIT((#831,#832));
#835=MEASURE_REPRESENTATION_ITEM('density measure',
POSITIVE_RATIO_MEASURE(7850.),#834);
#836=PROPERTY_DEFINITION_REPRESENTATION(#841,#838);
#837=PROPERTY_DEFINITION_REPRESENTATION(#842,#839);
#838=REPRESENTATION('material name',(#840),#1543);
#839=REPRESENTATION('density',(#835),#1543);
#840=DESCRIPTIVE_REPRESENTATION_ITEM('Steel','Steel');
#841=PROPERTY_DEFINITION('material property','material name',#1556);
#842=PROPERTY_DEFINITION('material property','density of part',#1556);
#843=AXIS2_PLACEMENT_3D('',#1204,#946,#947);
#844=AXIS2_PLACEMENT_3D('',#1205,#948,#949);
#845=AXIS2_PLACEMENT_3D('',#1208,#950,#951);
#846=AXIS2_PLACEMENT_3D('',#1212,#953,#954);
#847=AXIS2_PLACEMENT_3D('',#1214,#956,#957);
#848=AXIS2_PLACEMENT_3D('',#1220,#961,#962);
#849=AXIS2_PLACEMENT_3D('',#1223,#963,#964);
#850=AXIS2_PLACEMENT_3D('',#1227,#966,#967);
#851=AXIS2_PLACEMENT_3D('',#1229,#969,#970);
#852=AXIS2_PLACEMENT_3D('',#1241,#977,#978);
#853=AXIS2_PLACEMENT_3D('',#1243,#979,#980);
#854=AXIS2_PLACEMENT_3D('',#1244,#981,#982);
#855=AXIS2_PLACEMENT_3D('',#1247,#983,#984);
#856=AXIS2_PLACEMENT_3D('',#1251,#986,#987);
#857=AXIS2_PLACEMENT_3D('',#1253,#989,#990);
#858=AXIS2_PLACEMENT_3D('',#1256,#993,#994);
#859=AXIS2_PLACEMENT_3D('',#1258,#995,#996);
#860=AXIS2_PLACEMENT_3D('',#1261,#998,#999);
#861=AXIS2_PLACEMENT_3D('',#1262,#1000,#1001);
#862=AXIS2_PLACEMENT_3D('',#1274,#1008,#1009);
#863=AXIS2_PLACEMENT_3D('',#1275,#1010,#1011);
#864=AXIS2_PLACEMENT_3D('',#1278,#1013,#1014);
#865=AXIS2_PLACEMENT_3D('',#1279,#1015,#1016);
#866=AXIS2_PLACEMENT_3D('',#1282,#1018,#1019);
#867=AXIS2_PLACEMENT_3D('',#1283,#1020,#1021);
#868=AXIS2_PLACEMENT_3D('',#1286,#1023,#1024);
#869=AXIS2_PLACEMENT_3D('',#1287,#1025,#1026);
#870=AXIS2_PLACEMENT_3D('',#1290,#1028,#1029);
#871=AXIS2_PLACEMENT_3D('',#1291,#1030,#1031);
#872=AXIS2_PLACEMENT_3D('',#1331,#1033,#1034);
#873=AXIS2_PLACEMENT_3D('',#1334,#1036,#1037);
#874=AXIS2_PLACEMENT_3D('',#1335,#1038,#1039);
#875=AXIS2_PLACEMENT_3D('',#1337,#1040,#1041);
#876=AXIS2_PLACEMENT_3D('',#1338,#1042,#1043);
#877=AXIS2_PLACEMENT_3D('',#1360,#1044,#1045);
#878=AXIS2_PLACEMENT_3D('',#1361,#1046,#1047);
#879=AXIS2_PLACEMENT_3D('',#1362,#1048,#1049);
#880=AXIS2_PLACEMENT_3D('',#1382,#1050,#1051);
#881=AXIS2_PLACEMENT_3D('',#1383,#1052,#1053);
#882=AXIS2_PLACEMENT_3D('',#1385,#1055,#1056);
#883=AXIS2_PLACEMENT_3D('',#1387,#1057,#1058);
#884=AXIS2_PLACEMENT_3D('',#1389,#1059,#1060);
#885=AXIS2_PLACEMENT_3D('',#1390,#1061,#1062);
#886=AXIS2_PLACEMENT_3D('',#1392,#1063,#1064);
#887=AXIS2_PLACEMENT_3D('',#1394,#1066,#1067);
#888=AXIS2_PLACEMENT_3D('',#1396,#1068,#1069);
#889=AXIS2_PLACEMENT_3D('',#1398,#1071,#1072);
#890=AXIS2_PLACEMENT_3D('',#1399,#1073,#1074);
#891=AXIS2_PLACEMENT_3D('',#1400,#1075,#1076);
#892=AXIS2_PLACEMENT_3D('',#1402,#1077,#1078);
#893=AXIS2_PLACEMENT_3D('',#1404,#1079,#1080);
#894=AXIS2_PLACEMENT_3D('',#1406,#1081,#1082);
#895=AXIS2_PLACEMENT_3D('',#1408,#1083,#1084);
#896=AXIS2_PLACEMENT_3D('',#1410,#1085,#1086);
#897=AXIS2_PLACEMENT_3D('',#1412,#1087,#1088);
#898=AXIS2_PLACEMENT_3D('',#1413,#1089,#1090);
#899=AXIS2_PLACEMENT_3D('',#1415,#1091,#1092);
#900=AXIS2_PLACEMENT_3D('',#1417,#1093,#1094);
#901=AXIS2_PLACEMENT_3D('',#1418,#1095,#1096);
#902=AXIS2_PLACEMENT_3D('',#1421,#1098,#1099);
#903=AXIS2_PLACEMENT_3D('',#1422,#1100,#1101);
#904=AXIS2_PLACEMENT_3D('',#1424,#1102,#1103);
#905=AXIS2_PLACEMENT_3D('',#1426,#1105,#1106);
#906=AXIS2_PLACEMENT_3D('',#1428,#1107,#1108);
#907=AXIS2_PLACEMENT_3D('',#1430,#1110,#1111);
#908=AXIS2_PLACEMENT_3D('',#1432,#1112,#1113);
#909=AXIS2_PLACEMENT_3D('',#1434,#1115,#1116);
#910=AXIS2_PLACEMENT_3D('',#1436,#1117,#1118);
#911=AXIS2_PLACEMENT_3D('',#1438,#1120,#1121);
#912=AXIS2_PLACEMENT_3D('',#1440,#1122,#1123);
#913=AXIS2_PLACEMENT_3D('',#1442,#1125,#1126);
#914=AXIS2_PLACEMENT_3D('',#1444,#1127,#1128);
#915=AXIS2_PLACEMENT_3D('',#1446,#1130,#1131);
#916=AXIS2_PLACEMENT_3D('',#1447,#1132,#1133);
#917=AXIS2_PLACEMENT_3D('',#1448,#1134,#1135);
#918=AXIS2_PLACEMENT_3D('',#1449,#1136,#1137);
#919=AXIS2_PLACEMENT_3D('',#1450,#1138,#1139);
#920=AXIS2_PLACEMENT_3D('',#1451,#1140,#1141);
#921=AXIS2_PLACEMENT_3D('',#1452,#1142,#1143);
#922=AXIS2_PLACEMENT_3D('',#1476,#1146,#1147);
#923=AXIS2_PLACEMENT_3D('',#1498,#1148,#1149);
#924=AXIS2_PLACEMENT_3D('',#1500,#1150,#1151);
#925=AXIS2_PLACEMENT_3D('',#1501,#1152,#1153);
#926=AXIS2_PLACEMENT_3D('',#1504,#1155,#1156);
#927=AXIS2_PLACEMENT_3D('',#1505,#1157,#1158);
#928=AXIS2_PLACEMENT_3D('',#1508,#1160,#1161);
#929=AXIS2_PLACEMENT_3D('',#1509,#1162,#1163);
#930=AXIS2_PLACEMENT_3D('',#1512,#1165,#1166);
#931=AXIS2_PLACEMENT_3D('',#1513,#1167,#1168);
#932=AXIS2_PLACEMENT_3D('',#1516,#1170,#1171);
#933=AXIS2_PLACEMENT_3D('',#1517,#1172,#1173);
#934=AXIS2_PLACEMENT_3D('',#1519,#1175,#1176);
#935=AXIS2_PLACEMENT_3D('',#1521,#1177,#1178);
#936=AXIS2_PLACEMENT_3D('',#1524,#1180,#1181);
#937=AXIS2_PLACEMENT_3D('',#1525,#1182,#1183);
#938=AXIS2_PLACEMENT_3D('',#1528,#1185,#1186);
#939=AXIS2_PLACEMENT_3D('',#1529,#1187,#1188);
#940=AXIS2_PLACEMENT_3D('',#1532,#1190,#1191);
#941=AXIS2_PLACEMENT_3D('',#1533,#1192,#1193);
#942=AXIS2_PLACEMENT_3D('',#1536,#1195,#1196);
#943=AXIS2_PLACEMENT_3D('',#1537,#1197,#1198);
#944=AXIS2_PLACEMENT_3D('',#1539,#1200,#1201);
#945=AXIS2_PLACEMENT_3D('',#1540,#1202,#1203);
#946=DIRECTION('axis',(0.,0.,1.));
#947=DIRECTION('refdir',(1.,0.,0.));
#948=DIRECTION('center_axis',(0.,0.,1.));
#949=DIRECTION('ref_axis',(0.707106781186547,0.707106781186548,0.));
#950=DIRECTION('center_axis',(0.,0.,-1.));
#951=DIRECTION('ref_axis',(0.707106781186547,0.707106781186548,0.));
#952=DIRECTION('',(0.,0.,-1.));
#953=DIRECTION('center_axis',(0.,0.,-1.));
#954=DIRECTION('ref_axis',(0.707106781186547,0.707106781186548,0.));
#955=DIRECTION('',(0.,0.,1.));
#956=DIRECTION('center_axis',(-1.94409320076199E-16,1.,0.));
#957=DIRECTION('ref_axis',(-1.,-1.94409320076199E-16,0.));
#958=DIRECTION('',(-1.,-1.94409320076199E-16,0.));
#959=DIRECTION('',(0.,0.,-1.));
#960=DIRECTION('',(-1.,-1.94409320076199E-16,0.));
#961=DIRECTION('center_axis',(0.,0.,1.));
#962=DIRECTION('ref_axis',(0.707106781186547,-0.707106781186548,0.));
#963=DIRECTION('center_axis',(0.,0.,-1.));
#964=DIRECTION('ref_axis',(0.707106781186547,-0.707106781186548,0.));
#965=DIRECTION('',(0.,0.,-1.));
#966=DIRECTION('center_axis',(0.,0.,-1.));
#967=DIRECTION('ref_axis',(0.707106781186547,-0.707106781186548,0.));
#968=DIRECTION('',(0.,0.,1.));
#969=DIRECTION('center_axis',(1.,0.,0.));
#970=DIRECTION('ref_axis',(0.,1.,0.));
#971=DIRECTION('',(0.,1.,0.));
#972=DIRECTION('',(0.,1.,0.));
#973=DIRECTION('',(0.,0.,1.));
#974=DIRECTION('',(0.,-1.,0.));
#975=DIRECTION('',(0.,0.,1.));
#976=DIRECTION('',(0.,1.,0.));
#977=DIRECTION('center_axis',(-1.,0.,0.));
#978=DIRECTION('ref_axis',(0.,1.,0.));
#979=DIRECTION('center_axis',(-1.,0.,0.));
#980=DIRECTION('ref_axis',(0.,5.58686891024875E-9,1.));
#981=DIRECTION('center_axis',(0.,0.,1.));
#982=DIRECTION('ref_axis',(-0.707106781186548,-0.707106781186547,0.));
#983=DIRECTION('center_axis',(0.,0.,-1.));
#984=DIRECTION('ref_axis',(-0.707106781186548,-0.707106781186547,0.));
#985=DIRECTION('',(0.,0.,-1.));
#986=DIRECTION('center_axis',(0.,0.,-1.));
#987=DIRECTION('ref_axis',(-0.707106781186548,-0.707106781186547,0.));
#988=DIRECTION('',(0.,0.,1.));
#989=DIRECTION('center_axis',(-1.944093200762E-16,-1.,0.));
#990=DIRECTION('ref_axis',(1.,-1.944093200762E-16,0.));
#991=DIRECTION('',(-1.,0.,0.));
#992=DIRECTION('',(1.,-1.944093200762E-16,0.));
#993=DIRECTION('center_axis',(0.,0.,-1.));
#994=DIRECTION('ref_axis',(-0.707106781186548,0.707106781186547,0.));
#995=DIRECTION('center_axis',(0.,0.,-1.));
#996=DIRECTION('ref_axis',(-0.707106781186548,0.707106781186547,0.));
#997=DIRECTION('',(0.,0.,1.));
#998=DIRECTION('center_axis',(0.,0.,-1.));
#999=DIRECTION('ref_axis',(-0.707106781186548,0.707106781186547,0.));
#1000=DIRECTION('center_axis',(-1.,0.,0.));
#1001=DIRECTION('ref_axis',(0.,0.,1.));
#1002=DIRECTION('',(-3.93408375833333E-16,1.,0.));
#1003=DIRECTION('',(0.,-1.,0.));
#1004=DIRECTION('',(0.,0.,-1.));
#1005=DIRECTION('',(3.93408375833333E-16,-1.,0.));
#1006=DIRECTION('',(0.,0.,1.));
#1007=DIRECTION('',(0.,-1.,0.));
#1008=DIRECTION('center_axis',(1.,0.,0.));
#1009=DIRECTION('ref_axis',(-2.77989561143366E-13,0.,-1.));
#1010=DIRECTION('center_axis',(0.999999856050979,0.,-0.000536561293162162));
#1011=DIRECTION('ref_axis',(0.000536561293162162,0.,0.999999856050979));
#1012=DIRECTION('',(-0.999549113896668,3.61146055876992E-18,0.0300261370873127));
#1013=DIRECTION('center_axis',(-0.999999856050979,0.,0.000536561293162162));
#1014=DIRECTION('ref_axis',(0.000536561293162162,0.,0.999999856050979));
#1015=DIRECTION('center_axis',(0.999999856050979,0.,-0.000536561293162162));
#1016=DIRECTION('ref_axis',(0.000536561293162162,0.,0.999999856050979));
#1017=DIRECTION('',(-0.653260210537358,9.26791695865985E-17,0.757133473919022));
#1018=DIRECTION('center_axis',(-0.999999856050979,0.,0.000536561293162162));
#1019=DIRECTION('ref_axis',(0.000536561293162162,0.,0.999999856050979));
#1020=DIRECTION('center_axis',(0.999999856050979,0.,-0.000536561293162162));
#1021=DIRECTION('ref_axis',(0.000536561293162162,0.,0.999999856050979));
#1022=DIRECTION('',(-0.999999424203957,6.57098070917536E-20,0.00107312243242108));
#1023=DIRECTION('center_axis',(-0.999999856050979,0.,0.000536561293162162));
#1024=DIRECTION('ref_axis',(0.000536561293162161,0.,0.999999856050979));
#1025=DIRECTION('center_axis',(0.999999856050979,0.,-0.000536561293162162));
#1026=DIRECTION('ref_axis',(0.000536561293162162,0.,0.999999856050979));
#1027=DIRECTION('',(-0.421645439182319,1.11018447231098E-16,0.90676078632501));
#1028=DIRECTION('center_axis',(-0.999999856050979,0.,0.000536561293162162));
#1029=DIRECTION('ref_axis',(0.000536561293162161,0.,0.999999856050979));
#1030=DIRECTION('center_axis',(0.999999856050979,0.,-0.000536561293162162));
#1031=DIRECTION('ref_axis',(0.000536561293162162,0.,0.999999856050979));
#1032=DIRECTION('',(-0.999999424203957,6.57098070374424E-20,0.00107312243197759));
#1033=DIRECTION('center_axis',(-1.,0.,0.));
#1034=DIRECTION('ref_axis',(0.,1.,0.));
#1035=DIRECTION('',(-1.,0.,0.));
#1036=DIRECTION('center_axis',(-1.,0.,0.));
#1037=DIRECTION('ref_axis',(0.,1.,0.));
#1038=DIRECTION('center_axis',(-1.,0.,0.));
#1039=DIRECTION('ref_axis',(0.,1.,0.));
#1040=DIRECTION('center_axis',(1.,0.,0.));
#1041=DIRECTION('ref_axis',(0.,1.,0.));
#1042=DIRECTION('center_axis',(1.,0.,0.));
#1043=DIRECTION('ref_axis',(0.,-1.,-1.22464679914735E-16));
#1044=DIRECTION('center_axis',(-1.,0.,0.));
#1045=DIRECTION('ref_axis',(0.,1.,0.));
#1046=DIRECTION('center_axis',(-1.,0.,0.));
#1047=DIRECTION('ref_axis',(0.,1.,0.));
#1048=DIRECTION('center_axis',(1.,0.,0.));
#1049=DIRECTION('ref_axis',(0.,1.,0.));
#1050=DIRECTION('center_axis',(-1.,0.,0.));
#1051=DIRECTION('ref_axis',(0.,1.,0.));
#1052=DIRECTION('center_axis',(-1.,0.,0.));
#1053=DIRECTION('ref_axis',(0.,1.,0.));
#1054=DIRECTION('',(-1.,0.,0.));
#1055=DIRECTION('center_axis',(0.,0.,1.));
#1056=DIRECTION('ref_axis',(1.,0.,0.));
#1057=DIRECTION('center_axis',(0.,0.,1.));
#1058=DIRECTION('ref_axis',(1.,0.,0.));
#1059=DIRECTION('center_axis',(0.,0.,1.));
#1060=DIRECTION('ref_axis',(1.,0.,0.));
#1061=DIRECTION('center_axis',(0.,0.,1.));
#1062=DIRECTION('ref_axis',(1.,0.,0.));
#1063=DIRECTION('center_axis',(0.,0.,-1.));
#1064=DIRECTION('ref_axis',(1.,0.,0.));
#1065=DIRECTION('',(0.,0.,1.));
#1066=DIRECTION('center_axis',(0.,0.,1.));
#1067=DIRECTION('ref_axis',(1.,0.,0.));
#1068=DIRECTION('center_axis',(0.,0.,1.));
#1069=DIRECTION('ref_axis',(1.,0.,0.));
#1070=DIRECTION('',(0.,0.,1.));
#1071=DIRECTION('center_axis',(0.,0.,1.));
#1072=DIRECTION('ref_axis',(1.,0.,0.));
#1073=DIRECTION('center_axis',(0.,0.,-1.));
#1074=DIRECTION('ref_axis',(0.894863680219632,-0.446339549921106,0.));
#1075=DIRECTION('center_axis',(0.,0.,-1.));
#1076=DIRECTION('ref_axis',(-0.894863680219633,0.446339549921106,0.));
#1077=DIRECTION('center_axis',(0.,0.,-1.));
#1078=DIRECTION('ref_axis',(1.,0.,0.));
#1079=DIRECTION('center_axis',(0.,0.,-1.));
#1080=DIRECTION('ref_axis',(1.,0.,0.));
#1081=DIRECTION('center_axis',(0.,0.,-1.));
#1082=DIRECTION('ref_axis',(1.,0.,0.));
#1083=DIRECTION('center_axis',(0.,0.,-1.));
#1084=DIRECTION('ref_axis',(1.,0.,0.));
#1085=DIRECTION('center_axis',(0.,0.,-1.));
#1086=DIRECTION('ref_axis',(1.,0.,0.));
#1087=DIRECTION('center_axis',(0.,0.,-1.));
#1088=DIRECTION('ref_axis',(1.,0.,0.));
#1089=DIRECTION('center_axis',(0.,0.,1.));
#1090=DIRECTION('ref_axis',(1.,0.,0.));
#1091=DIRECTION('center_axis',(0.,0.,-1.));
#1092=DIRECTION('ref_axis',(1.,0.,0.));
#1093=DIRECTION('center_axis',(0.,0.,-1.));
#1094=DIRECTION('ref_axis',(1.,0.,0.));
#1095=DIRECTION('center_axis',(0.,0.,-1.));
#1096=DIRECTION('ref_axis',(0.,1.,0.));
#1097=DIRECTION('',(0.,0.,-1.));
#1098=DIRECTION('center_axis',(0.,0.,1.));
#1099=DIRECTION('ref_axis',(0.,1.,0.));
#1100=DIRECTION('center_axis',(0.,0.,-1.));
#1101=DIRECTION('ref_axis',(1.,0.,0.));
#1102=DIRECTION('center_axis',(0.,0.,1.));
#1103=DIRECTION('ref_axis',(1.,0.,0.));
#1104=DIRECTION('',(0.,0.,-1.));
#1105=DIRECTION('center_axis',(0.,0.,-1.));
#1106=DIRECTION('ref_axis',(1.,0.,0.));
#1107=DIRECTION('center_axis',(0.,0.,1.));
#1108=DIRECTION('ref_axis',(1.,0.,0.));
#1109=DIRECTION('',(0.,0.,-1.));
#1110=DIRECTION('center_axis',(0.,0.,-1.));
#1111=DIRECTION('ref_axis',(1.,0.,0.));
#1112=DIRECTION('center_axis',(0.,0.,1.));
#1113=DIRECTION('ref_axis',(1.,0.,0.));
#1114=DIRECTION('',(0.,0.,-1.));
#1115=DIRECTION('center_axis',(0.,0.,-1.));
#1116=DIRECTION('ref_axis',(1.,0.,0.));
#1117=DIRECTION('center_axis',(0.,0.,1.));
#1118=DIRECTION('ref_axis',(1.,0.,0.));
#1119=DIRECTION('',(0.,0.,-1.));
#1120=DIRECTION('center_axis',(0.,0.,-1.));
#1121=DIRECTION('ref_axis',(1.,0.,0.));
#1122=DIRECTION('center_axis',(0.,0.,1.));
#1123=DIRECTION('ref_axis',(1.,0.,0.));
#1124=DIRECTION('',(0.,0.,-1.));
#1125=DIRECTION('center_axis',(0.,0.,-1.));
#1126=DIRECTION('ref_axis',(1.,0.,0.));
#1127=DIRECTION('center_axis',(0.,0.,1.));
#1128=DIRECTION('ref_axis',(1.,0.,0.));
#1129=DIRECTION('',(0.,0.,-1.));
#1130=DIRECTION('center_axis',(0.,0.,-1.));
#1131=DIRECTION('ref_axis',(1.,0.,0.));
#1132=DIRECTION('center_axis',(0.,0.,1.));
#1133=DIRECTION('ref_axis',(0.894863680219632,-0.446339549921106,0.));
#1134=DIRECTION('center_axis',(0.,0.,1.));
#1135=DIRECTION('ref_axis',(-0.894863680219633,0.446339549921106,0.));
#1136=DIRECTION('center_axis',(0.,0.,1.));
#1137=DIRECTION('ref_axis',(-0.894863680219633,0.446339549921106,0.));
#1138=DIRECTION('center_axis',(0.,0.,1.));
#1139=DIRECTION('ref_axis',(0.894863680219632,-0.446339549921106,0.));
#1140=DIRECTION('center_axis',(0.,0.,-1.));
#1141=DIRECTION('ref_axis',(1.,0.,0.));
#1142=DIRECTION('center_axis',(0.,0.,1.));
#1143=DIRECTION('ref_axis',(1.,0.,0.));
#1144=DIRECTION('',(0.,0.,1.));
#1145=DIRECTION('',(0.,0.,1.));
#1146=DIRECTION('center_axis',(0.,0.,1.));
#1147=DIRECTION('ref_axis',(1.,0.,0.));
#1148=DIRECTION('center_axis',(0.,0.,-1.));
#1149=DIRECTION('ref_axis',(1.,0.,0.));
#1150=DIRECTION('center_axis',(4.71465904425124E-16,0.,-1.));
#1151=DIRECTION('ref_axis',(1.,0.,4.71465904425124E-16));
#1152=DIRECTION('center_axis',(-1.,0.,2.78102125755022E-13));
#1153=DIRECTION('ref_axis',(-2.77989561143366E-13,0.,-1.));
#1154=DIRECTION('',(0.978147600733373,2.54618386667441E-17,-0.207911690819793));
#1155=DIRECTION('center_axis',(1.,0.,-2.78102125755022E-13));
#1156=DIRECTION('ref_axis',(-2.78102125755022E-13,0.,-1.));
#1157=DIRECTION('center_axis',(-1.,0.,2.78102125755022E-13));
#1158=DIRECTION('ref_axis',(-2.77989561143366E-13,0.,-1.));
#1159=DIRECTION('',(0.707106781185102,8.65956056237023E-17,-0.707106781187993));
#1160=DIRECTION('center_axis',(1.,0.,-2.78102125755022E-13));
#1161=DIRECTION('ref_axis',(-2.78102125755022E-13,0.,-1.));
#1162=DIRECTION('center_axis',(1.,0.,-2.78102125755022E-13));
#1163=DIRECTION('ref_axis',(-2.77989561143366E-13,0.,-1.));
#1164=DIRECTION('',(1.,0.,-2.78102125755022E-13));
#1165=DIRECTION('center_axis',(1.,0.,-2.78102125755022E-13));
#1166=DIRECTION('ref_axis',(-2.78102125755022E-13,0.,-1.));
#1167=DIRECTION('center_axis',(-1.,0.,2.78102125755022E-13));
#1168=DIRECTION('ref_axis',(-2.77989561143366E-13,0.,-1.));
#1169=DIRECTION('',(0.422618261739724,1.10990693043717E-16,-0.906307787037105));
#1170=DIRECTION('center_axis',(1.,0.,-2.78102125755022E-13));
#1171=DIRECTION('ref_axis',(-2.78102125755022E-13,0.,-1.));
#1172=DIRECTION('center_axis',(1.,0.,-2.78102125755022E-13));
#1173=DIRECTION('ref_axis',(-2.77989561143366E-13,0.,-1.));
#1174=DIRECTION('',(1.,0.,-2.78102125755022E-13));
#1175=DIRECTION('center_axis',(-4.71465904425124E-16,0.,1.));
#1176=DIRECTION('ref_axis',(-1.,-1.58588827188389E-30,-6.34679363341017E-16));
#1177=DIRECTION('center_axis',(0.,0.,-1.));
#1178=DIRECTION('ref_axis',(-1.,-1.58588827188389E-30,-6.34679363341017E-16));
#1179=DIRECTION('',(-0.207911690817763,2.54618386665286E-17,-0.978147600733805));
#1180=DIRECTION('center_axis',(4.71465904425124E-16,0.,-1.));
#1181=DIRECTION('ref_axis',(1.,0.,4.71465904425124E-16));
#1182=DIRECTION('center_axis',(-4.71465904425124E-16,0.,1.));
#1183=DIRECTION('ref_axis',(-1.,-1.58588827188389E-30,-6.34679363341017E-16));
#1184=DIRECTION('',(-0.707106781185889,8.65956056234676E-17,-0.707106781187206));
#1185=DIRECTION('center_axis',(4.71465904425124E-16,0.,-1.));
#1186=DIRECTION('ref_axis',(1.,0.,4.71465904425124E-16));
#1187=DIRECTION('center_axis',(4.71465904425124E-16,0.,-1.));
#1188=DIRECTION('ref_axis',(-1.,-1.58588827188389E-30,-6.34679363341017E-16));
#1189=DIRECTION('',(4.71465904425124E-16,0.,-1.));
#1190=DIRECTION('center_axis',(4.71465904425124E-16,0.,-1.));
#1191=DIRECTION('ref_axis',(1.,0.,4.71465904425124E-16));
#1192=DIRECTION('center_axis',(-4.71465904425124E-16,0.,1.));
#1193=DIRECTION('ref_axis',(-1.,-1.58588827188389E-30,-6.34679363341017E-16));
#1194=DIRECTION('',(-0.90630778703664,1.10990693043673E-16,-0.42261826174072));
#1195=DIRECTION('center_axis',(4.71465904425124E-16,0.,-1.));
#1196=DIRECTION('ref_axis',(1.,0.,4.71465904425124E-16));
#1197=DIRECTION('center_axis',(4.71465904425124E-16,0.,-1.));
#1198=DIRECTION('ref_axis',(-1.,-1.58588827188389E-30,-6.34679363341017E-16));
#1199=DIRECTION('',(4.71465904425124E-16,0.,-1.));
#1200=DIRECTION('center_axis',(0.,0.,1.));
#1201=DIRECTION('ref_axis',(1.,0.,0.));
#1202=DIRECTION('center_axis',(0.,0.,1.));
#1203=DIRECTION('ref_axis',(1.,0.,0.));
#1204=CARTESIAN_POINT('',(0.,0.,0.));
#1205=CARTESIAN_POINT('Origin',(0.399330708661417,0.399330708661418,0.));
#1206=CARTESIAN_POINT('',(0.399330708661417,0.899330708661417,2.83818897637795));
#1207=CARTESIAN_POINT('',(0.899330708661417,0.399330708661418,2.83818897637795));
#1208=CARTESIAN_POINT('Origin',(0.399330708661417,0.399330708661418,2.83818897637795));
#1209=CARTESIAN_POINT('',(0.899330708661417,0.399330708661418,0.35));
#1210=CARTESIAN_POINT('',(0.899330708661417,0.399330708661418,0.));
#1211=CARTESIAN_POINT('',(0.399330708661417,0.899330708661418,0.35));
#1212=CARTESIAN_POINT('Origin',(0.399330708661417,0.399330708661418,0.35));
#1213=CARTESIAN_POINT('',(0.399330708661417,0.899330708661418,0.));
#1214=CARTESIAN_POINT('Origin',(0.899330708661417,0.899330708661418,0.));
#1215=CARTESIAN_POINT('',(-0.579330708661417,0.899330708661417,0.35));
#1216=CARTESIAN_POINT('',(0.404665354330709,0.899330708661418,0.35));
#1217=CARTESIAN_POINT('',(-0.579330708661417,0.899330708661417,2.83818897637795));
#1218=CARTESIAN_POINT('',(-0.579330708661417,0.899330708661417,0.709547244094488));
#1219=CARTESIAN_POINT('',(-0.899330708661418,0.899330708661417,2.83818897637795));
#1220=CARTESIAN_POINT('Origin',(0.399330708661417,-0.399330708661418,0.));
#1221=CARTESIAN_POINT('',(0.899330708661417,-0.399330708661417,2.83818897637795));
#1222=CARTESIAN_POINT('',(0.399330708661417,-0.899330708661417,2.83818897637795));
#1223=CARTESIAN_POINT('Origin',(0.399330708661417,-0.399330708661418,2.83818897637795));
#1224=CARTESIAN_POINT('',(0.399330708661417,-0.899330708661417,0.35));
#1225=CARTESIAN_POINT('',(0.399330708661417,-0.899330708661418,0.));
#1226=CARTESIAN_POINT('',(0.899330708661417,-0.399330708661418,0.35));
#1227=CARTESIAN_POINT('Origin',(0.399330708661417,-0.399330708661418,0.35));
#1228=CARTESIAN_POINT('',(0.899330708661417,-0.399330708661418,0.));
#1229=CARTESIAN_POINT('Origin',(0.899330708661417,-0.899330708661418,0.));
#1230=CARTESIAN_POINT('',(0.899330708661417,0.899330708661418,2.83818897637795));
#1231=CARTESIAN_POINT('',(0.899330708661418,-0.899330708661418,0.35));
#1232=CARTESIAN_POINT('',(0.899330708661417,-0.449665354330709,0.35));
#1233=CARTESIAN_POINT('',(0.899330708661417,-0.899330708661418,0.));
#1234=CARTESIAN_POINT('',(0.899330708661417,-0.899330708661418,0.));
#1235=CARTESIAN_POINT('',(0.899330708661417,0.899330708661418,0.));
#1236=CARTESIAN_POINT('',(0.899330708661417,0.899330708661418,0.));
#1237=CARTESIAN_POINT('',(0.899330708661418,0.899330708661418,0.35));
#1238=CARTESIAN_POINT('',(0.899330708661417,0.899330708661418,0.));
#1239=CARTESIAN_POINT('',(0.899330708661417,-0.449665354330709,0.35));
#1240=CARTESIAN_POINT('',(0.899330708661417,-0.249999999999999,1.90000006063717));
#1241=CARTESIAN_POINT('Origin',(0.899330708661417,5.2865998151796E-16,1.90000006063717));
#1242=CARTESIAN_POINT('',(0.899330708661417,-9.88442420463361E-10,1.15642123458836));
#1243=CARTESIAN_POINT('Origin',(0.899330708661417,0.,1.33334366013219));
#1244=CARTESIAN_POINT('Origin',(-0.579330708661417,-0.399330708661417,0.709547244094488));
#1245=CARTESIAN_POINT('',(-0.579330708661417,-0.899330708661417,2.83818897637795));
#1246=CARTESIAN_POINT('',(-1.07933070866142,-0.399330708661417,2.83818897637795));
#1247=CARTESIAN_POINT('Origin',(-0.579330708661417,-0.399330708661417,2.83818897637795));
#1248=CARTESIAN_POINT('',(-1.07933070866142,-0.399330708661417,0.35));
#1249=CARTESIAN_POINT('',(-1.07933070866142,-0.399330708661417,0.709547244094488));
#1250=CARTESIAN_POINT('',(-0.579330708661417,-0.899330708661417,0.35));
#1251=CARTESIAN_POINT('Origin',(-0.579330708661417,-0.399330708661417,0.35));
#1252=CARTESIAN_POINT('',(-0.579330708661417,-0.899330708661417,0.709547244094488));
#1253=CARTESIAN_POINT('Origin',(-0.899330708661417,-0.899330708661417,0.));
#1254=CARTESIAN_POINT('',(-0.899330708661417,-0.899330708661417,2.83818897637795));
#1255=CARTESIAN_POINT('',(-0.494665354330709,-0.899330708661417,0.35));
#1256=CARTESIAN_POINT('Origin',(-0.579330708661417,0.399330708661417,0.709547244094488));
#1257=CARTESIAN_POINT('',(-1.07933070866142,0.399330708661417,0.35));
#1258=CARTESIAN_POINT('Origin',(-0.579330708661417,0.399330708661417,0.35));
#1259=CARTESIAN_POINT('',(-1.07933070866142,0.399330708661417,2.83818897637795));
#1260=CARTESIAN_POINT('',(-1.07933070866142,0.399330708661417,0.709547244094488));
#1261=CARTESIAN_POINT('Origin',(-0.579330708661417,0.399330708661417,2.83818897637795));
#1262=CARTESIAN_POINT('Origin',(-1.07933070866142,0.,1.41909448818898));
#1263=CARTESIAN_POINT('',(-1.07933070866142,0.899330708661417,2.83818897637795));
#1264=CARTESIAN_POINT('',(-1.07933070866142,0.899330708661417,0.35));
#1265=CARTESIAN_POINT('',(-1.07933070866142,0.,0.35));
#1266=CARTESIAN_POINT('',(-1.07933070866142,0.899330708661417,0.));
#1267=CARTESIAN_POINT('',(-1.07933070866142,0.899330708661417,0.));
#1268=CARTESIAN_POINT('',(-1.07933070866142,-0.899330708661417,0.));
#1269=CARTESIAN_POINT('',(-1.07933070866142,-0.899330708661417,0.));
#1270=CARTESIAN_POINT('',(-1.07933070866142,-0.899330708661417,0.35));
#1271=CARTESIAN_POINT('',(-1.07933070866142,-0.899330708661417,2.83818897637795));
#1272=CARTESIAN_POINT('',(-1.07933070866142,0.,0.35));
#1273=CARTESIAN_POINT('',(-1.07933070866116,-2.9820149559235E-17,2.33168897637811));
#1274=CARTESIAN_POINT('Origin',(-1.07933070866123,0.,2.08818897637813));
#1275=CARTESIAN_POINT('Origin',(0.873502498187466,0.,1.33336031923055));
#1276=CARTESIAN_POINT('',(0.836409148735693,-2.14397468422135E-17,1.15831137821193));
#1277=CARTESIAN_POINT('',(0.873407977335757,-2.15734269269158E-17,1.1571999451826));
#1278=CARTESIAN_POINT('Origin',(0.836503083887434,0.,1.33338017168699));
#1279=CARTESIAN_POINT('Origin',(0.821701788510303,0.,1.33338811349033));
#1280=CARTESIAN_POINT('',(0.806824947242028,-1.72425843898118E-17,1.19259968919231));
#1281=CARTESIAN_POINT('',(0.821617047988861,-1.93411656160127E-17,1.17545553370212));
#1282=CARTESIAN_POINT('Origin',(0.806900493133171,0.,1.33339605529366));
#1283=CARTESIAN_POINT('Origin',(0.694663872932546,0.,1.3334562771284));
#1284=CARTESIAN_POINT('',(0.582351771466199,-1.72278342922413E-17,1.19284057653142));
#1285=CARTESIAN_POINT('',(0.694588359354114,-1.72352093410265E-17,1.19272013286187));
#1286=CARTESIAN_POINT('Origin',(0.582427252731922,0.,1.33351649896314));
#1287=CARTESIAN_POINT('Origin',(0.556670118495169,0.,1.33353031924639));
#1288=CARTESIAN_POINT('',(0.530896861511121,-3.67985375032736E-18,1.30349585766438));
#1289=CARTESIAN_POINT('',(0.55662431648866,-1.04538440212843E-17,1.2481682170979));
#1290=CARTESIAN_POINT('Origin',(0.530912984258417,0.,1.33354413952963));
#1291=CARTESIAN_POINT('Origin',(0.485912997213828,0.,1.33356828478435));
#1292=CARTESIAN_POINT('',(0.449330708661416,-4.05687352039058E-18,1.30358338818309));
#1293=CARTESIAN_POINT('',(0.485896887421943,-3.67689680901069E-18,1.30354414817382));
#1294=CARTESIAN_POINT('',(0.448327834602519,-0.030003974183213,1.33358844289262));
#1295=CARTESIAN_POINT('Ctrl Pts',(0.448327834602519,-0.030003974183213,
1.33358844289262));
#1296=CARTESIAN_POINT('Ctrl Pts',(0.448327834602519,-0.030003974183213,
1.32981979384938));
#1297=CARTESIAN_POINT('Ctrl Pts',(0.448380242647439,-0.0292505931698893,
1.32580070902155));
#1298=CARTESIAN_POINT('Ctrl Pts',(0.448569520765175,-0.0261882460923047,
1.31840847536958));
#1299=CARTESIAN_POINT('Ctrl Pts',(0.448703656892493,-0.023879342199325,
1.31503523104058));
#1300=CARTESIAN_POINT('Ctrl Pts',(0.448955441497189,-0.0185527925915043,
1.30970842918302));
#1301=CARTESIAN_POINT('Ctrl Pts',(0.449089448122454,-0.0151796847170198,
1.30739938062669));
#1302=CARTESIAN_POINT('Ctrl Pts',(0.449278430209245,-0.00778764352301107,
1.30433682774472));
#1303=CARTESIAN_POINT('Ctrl Pts',(0.449330708661416,-0.00376861466724335,
1.30358338818309));
#1304=CARTESIAN_POINT('Ctrl Pts',(0.449330708661416,-4.43925298970443E-18,
1.30358338818309));
#1305=CARTESIAN_POINT('Ctrl Pts',(0.449330708661416,-4.43925298970443E-18,
1.30358338818309));
#1306=CARTESIAN_POINT('Ctrl Pts',(0.449330708661416,0.00376861466724334,
1.30358338818309));
#1307=CARTESIAN_POINT('Ctrl Pts',(0.449278430209245,0.00778764352301125,
1.30433682774472));
#1308=CARTESIAN_POINT('Ctrl Pts',(0.449089448122454,0.01517968471702,1.30739938062669));
#1309=CARTESIAN_POINT('Ctrl Pts',(0.448955441497189,0.0185527925915043,
1.30970842918302));
#1310=CARTESIAN_POINT('Ctrl Pts',(0.448703656892493,0.023879342199325,1.31503523104058));
#1311=CARTESIAN_POINT('Ctrl Pts',(0.448569520765175,0.0261882460923047,
1.31840847536958));
#1312=CARTESIAN_POINT('Ctrl Pts',(0.448380242647439,0.0292505931698893,
1.32580070902155));
#1313=CARTESIAN_POINT('Ctrl Pts',(0.448327834602519,0.030003974183213,1.32981979384938));
#1314=CARTESIAN_POINT('Ctrl Pts',(0.448327834602519,0.0300039741832129,
1.33735698743646));
#1315=CARTESIAN_POINT('Ctrl Pts',(0.448380240106846,0.02925063048019,1.34137596817615));
#1316=CARTESIAN_POINT('Ctrl Pts',(0.448569514846527,0.0261883456446169,
1.34876797303604));
#1317=CARTESIAN_POINT('Ctrl Pts',(0.448703650222264,0.0238794647585228,
1.35214109186273));
#1318=CARTESIAN_POINT('Ctrl Pts',(0.448955437356817,0.0185528987318172,
1.35746771398094));
#1319=CARTESIAN_POINT('Ctrl Pts',(0.449089446388062,0.0151797432754169,
1.35977665909159));
#1320=CARTESIAN_POINT('Ctrl Pts',(0.449278430469908,0.00778764260945973,
1.36283904281545));
#1321=CARTESIAN_POINT('Ctrl Pts',(0.449330708661416,0.00376860382859425,
1.36359242139487));
#1322=CARTESIAN_POINT('Ctrl Pts',(0.449330708661416,-0.00376860382859423,
1.36359242139487));
#1323=CARTESIAN_POINT('Ctrl Pts',(0.449278430469908,-0.00778764260945972,
1.36283904281545));
#1324=CARTESIAN_POINT('Ctrl Pts',(0.449089446388062,-0.0151797432754169,
1.35977665909159));
#1325=CARTESIAN_POINT('Ctrl Pts',(0.448955437356817,-0.0185528987318172,
1.35746771398094));
#1326=CARTESIAN_POINT('Ctrl Pts',(0.448703650222264,-0.0238794647585228,
1.35214109186273));
#1327=CARTESIAN_POINT('Ctrl Pts',(0.448569514846527,-0.0261883456446168,
1.34876797303604));
#1328=CARTESIAN_POINT('Ctrl Pts',(0.448380240106846,-0.0292506304801899,
1.34137596817615));
#1329=CARTESIAN_POINT('Ctrl Pts',(0.448327834602519,-0.030003974183213,
1.33735698743646));
#1330=CARTESIAN_POINT('Ctrl Pts',(0.448327834602519,-0.030003974183213,
1.33358844289262));
#1331=CARTESIAN_POINT('Origin',(0.824330708661417,5.2865998151796E-16,1.90000006063717));
#1332=CARTESIAN_POINT('',(0.749330708661417,-0.249999999999999,1.90000006063717));
#1333=CARTESIAN_POINT('',(0.824330708661417,-0.249999999999999,1.90000006063717));
#1334=CARTESIAN_POINT('Origin',(0.749330708661417,5.2865998151796E-16,1.90000006063717));
#1335=CARTESIAN_POINT('Origin',(0.749330708661417,5.2865998151796E-16,1.90000006063717));
#1336=CARTESIAN_POINT('',(0.749330708661417,-0.113999999999999,1.90000006063717));
#1337=CARTESIAN_POINT('Origin',(0.749330708661417,5.2865998151796E-16,1.90000006063717));
#1338=CARTESIAN_POINT('Origin',(0.415081653376847,5.2865998151796E-16,1.90000006063717));
#1339=CARTESIAN_POINT('',(0.449330708661417,3.88218949419789E-31,2.01400006063717));
#1340=CARTESIAN_POINT('',(0.449330708661417,3.88218949419789E-31,1.78600006063717));
#1341=CARTESIAN_POINT('Ctrl Pts',(0.449330708661416,5.4500367473602E-16,
2.01400006063716));
#1342=CARTESIAN_POINT('Ctrl Pts',(0.449330708661416,-0.0135489333311545,
2.01400006063716));
#1343=CARTESIAN_POINT('Ctrl Pts',(0.448657993917745,-0.0275594247067306,
2.0103590468812));
#1344=CARTESIAN_POINT('Ctrl Pts',(0.446439572301702,-0.0523948743191412,
1.99681694735851));
#1345=CARTESIAN_POINT('Ctrl Pts',(0.444935800935636,-0.0632398184436755,
1.98694570112867));
#1346=CARTESIAN_POINT('Ctrl Pts',(0.44234633333425,-0.0793184813122931,
1.96597338121967));
#1347=CARTESIAN_POINT('Ctrl Pts',(0.441067187979524,-0.0858902467760729,
1.95351724943049));
#1348=CARTESIAN_POINT('Ctrl Pts',(0.439302928268782,-0.094500444230092,
1.92703364051261));
#1349=CARTESIAN_POINT('Ctrl Pts',(0.438837886962998,-0.0965370121353569,
1.91300422400803));
#1350=CARTESIAN_POINT('Ctrl Pts',(0.438837886962998,-0.0965370121353569,
1.88699589726631));
#1351=CARTESIAN_POINT('Ctrl Pts',(0.439302928268782,-0.0945004442300918,
1.87296648076172));
#1352=CARTESIAN_POINT('Ctrl Pts',(0.441067187979524,-0.0858902467760726,
1.84648287184384));
#1353=CARTESIAN_POINT('Ctrl Pts',(0.44234633333425,-0.0793184813122931,
1.83402674005466));
#1354=CARTESIAN_POINT('Ctrl Pts',(0.444935800935636,-0.0632398184436755,
1.81305442014566));
#1355=CARTESIAN_POINT('Ctrl Pts',(0.446439572301702,-0.0523948743191415,
1.80318317391582));
#1356=CARTESIAN_POINT('Ctrl Pts',(0.448657993917745,-0.0275594247067306,
1.78964107439313));
#1357=CARTESIAN_POINT('Ctrl Pts',(0.449330708661416,-0.0135489333311546,
1.78600006063717));
#1358=CARTESIAN_POINT('Ctrl Pts',(0.449330708661416,5.40905902745524E-16,
1.78600006063717));
#1359=CARTESIAN_POINT('',(0.449330708661417,-0.113999999999999,1.90000006063717));
#1360=CARTESIAN_POINT('Origin',(0.449330708661417,5.2865998151796E-16,1.90000006063717));
#1361=CARTESIAN_POINT('Origin',(0.449330708661417,5.2865998151796E-16,1.90000006063717));
#1362=CARTESIAN_POINT('Origin',(0.415081653376847,5.2865998151796E-16,1.90000006063717));
#1363=CARTESIAN_POINT('Ctrl Pts',(0.449330708661416,5.12221498812049E-16,
1.78600006063717));
#1364=CARTESIAN_POINT('Ctrl Pts',(0.449330708661416,0.0135489333311556,
1.78600006063717));
#1365=CARTESIAN_POINT('Ctrl Pts',(0.448657993917745,0.0275594247067315,
1.78964107439313));
#1366=CARTESIAN_POINT('Ctrl Pts',(0.446439572301702,0.0523948743191423,
1.80318317391582));
#1367=CARTESIAN_POINT('Ctrl Pts',(0.444935800935636,0.0632398184436764,
1.81305442014566));
#1368=CARTESIAN_POINT('Ctrl Pts',(0.44234633333425,0.0793184813122939,1.83402674005466));
#1369=CARTESIAN_POINT('Ctrl Pts',(0.441067187979524,0.0858902467760735,
1.84648287184384));
#1370=CARTESIAN_POINT('Ctrl Pts',(0.439302928268782,0.0945004442300927,
1.87296648076172));
#1371=CARTESIAN_POINT('Ctrl Pts',(0.438837886962997,0.0965370121353577,
1.88699589726631));
#1372=CARTESIAN_POINT('Ctrl Pts',(0.438837886962997,0.0965370121353577,
1.90000006063717));
#1373=CARTESIAN_POINT('Ctrl Pts',(0.438837886962997,0.0965370121353577,
1.91300422400803));
#1374=CARTESIAN_POINT('Ctrl Pts',(0.439302928268782,0.0945004442300927,
1.92703364051261));
#1375=CARTESIAN_POINT('Ctrl Pts',(0.441067187979524,0.0858902467760738,
1.95351724943049));
#1376=CARTESIAN_POINT('Ctrl Pts',(0.44234633333425,0.079318481312294,1.96597338121967));
#1377=CARTESIAN_POINT('Ctrl Pts',(0.444935800935636,0.0632398184436765,
1.98694570112867));
#1378=CARTESIAN_POINT('Ctrl Pts',(0.446439572301702,0.0523948743191425,
1.99681694735851));
#1379=CARTESIAN_POINT('Ctrl Pts',(0.448657993917745,0.0275594247067319,
2.0103590468812));
#1380=CARTESIAN_POINT('Ctrl Pts',(0.449330708661416,0.0135489333311556,
2.01400006063716));
#1381=CARTESIAN_POINT('Ctrl Pts',(0.449330708661416,5.54565142713845E-16,
2.01400006063716));
#1382=CARTESIAN_POINT('Origin',(0.449330708661417,5.2865998151796E-16,1.90000006063717));
#1383=CARTESIAN_POINT('Origin',(0.674330708661418,5.2865998151796E-16,1.90000006063717));
#1384=CARTESIAN_POINT('',(0.674330708661418,-0.113999999999999,1.90000006063717));
#1385=CARTESIAN_POINT('Origin',(0.556,0.,0.074));
#1386=CARTESIAN_POINT('',(-0.676,-8.27861236223611E-17,0.0739999999999999));
#1387=CARTESIAN_POINT('Origin',(0.,0.,0.0739999999999999));
#1388=CARTESIAN_POINT('',(-0.556,-6.80903620325928E-17,0.074));
#1389=CARTESIAN_POINT('Origin',(0.,0.,0.074));
#1390=CARTESIAN_POINT('Origin',(0.,0.,0.037));
#1391=CARTESIAN_POINT('',(-0.556,-6.80903620325928E-17,0.));
#1392=CARTESIAN_POINT('Origin',(0.,0.,0.));
#1393=CARTESIAN_POINT('',(-0.556,-6.80903620325928E-17,0.037));
#1394=CARTESIAN_POINT('Origin',(0.,0.,0.037));
#1395=CARTESIAN_POINT('',(-0.676,-8.27861236223611E-17,0.));
#1396=CARTESIAN_POINT('Origin',(0.,0.,0.));
#1397=CARTESIAN_POINT('',(-0.676,-8.27861236223611E-17,0.037));
#1398=CARTESIAN_POINT('Origin',(-1.74838271594513E-16,0.,0.));
#1399=CARTESIAN_POINT('Origin',(-0.09,-0.405872953041381,0.));
#1400=CARTESIAN_POINT('Origin',(-0.0899999999999999,0.405872953041381,0.));
#1401=CARTESIAN_POINT('',(-0.165250000000058,-1.24526412776453,0.));
#1402=CARTESIAN_POINT('Origin',(-0.090000000000058,-1.24526412776453,0.));
#1403=CARTESIAN_POINT('',(-0.702078469846337,-1.12273653265525,0.));
#1404=CARTESIAN_POINT('Origin',(-0.626828469846337,-1.12273653265525,0.));
#1405=CARTESIAN_POINT('',(-0.16525,1.24526412776453,0.));
#1406=CARTESIAN_POINT('Origin',(-0.0900000000000001,1.24526412776453,0.));
#1407=CARTESIAN_POINT('',(0.375230698092379,1.12273653265525,0.));
#1408=CARTESIAN_POINT('Origin',(0.450480698092379,1.12273653265525,0.));
#1409=CARTESIAN_POINT('',(-0.705369013794495,1.12115189020775,0.));
#1410=CARTESIAN_POINT('Origin',(-0.630119013794495,1.12115189020775,0.));
#1411=CARTESIAN_POINT('',(0.378521242040537,-1.12115189020775,0.));
#1412=CARTESIAN_POINT('Origin',(0.453771242040537,-1.12115189020775,0.));
#1413=CARTESIAN_POINT('Origin',(0.,0.499330708661417,0.3));
#1414=CARTESIAN_POINT('',(-6.11503754078184E-17,-0.499330708661417,0.3));
#1415=CARTESIAN_POINT('Origin',(0.,0.,0.3));
#1416=CARTESIAN_POINT('',(-0.449330708661418,5.50271414120817E-17,0.3));
#1417=CARTESIAN_POINT('Origin',(-8.86055772656956E-16,0.,0.3));
#1418=CARTESIAN_POINT('Origin',(0.,0.,0.15));
#1419=CARTESIAN_POINT('',(-6.11503754078184E-17,-0.499330708661417,2.18547839493141E-17));
#1420=CARTESIAN_POINT('',(-6.11503754078184E-17,-0.499330708661417,0.15));
#1421=CARTESIAN_POINT('Origin',(0.,0.,0.));
#1422=CARTESIAN_POINT('Origin',(0.453771242040537,-1.12115189020775,0.1575));
#1423=CARTESIAN_POINT('',(0.378521242040537,-1.12115189020775,0.35));
#1424=CARTESIAN_POINT('Origin',(0.453771242040537,-1.12115189020775,0.35));
#1425=CARTESIAN_POINT('',(0.378521242040537,-1.12115189020775,0.1575));
#1426=CARTESIAN_POINT('Origin',(-0.630119013794495,1.12115189020775,0.1575));
#1427=CARTESIAN_POINT('',(-0.705369013794495,1.12115189020775,0.35));
#1428=CARTESIAN_POINT('Origin',(-0.630119013794495,1.12115189020775,0.35));
#1429=CARTESIAN_POINT('',(-0.705369013794495,1.12115189020775,0.1575));
#1430=CARTESIAN_POINT('Origin',(0.450480698092379,1.12273653265525,0.1575));
#1431=CARTESIAN_POINT('',(0.375230698092379,1.12273653265525,0.35));
#1432=CARTESIAN_POINT('Origin',(0.450480698092379,1.12273653265525,0.35));
#1433=CARTESIAN_POINT('',(0.375230698092379,1.12273653265525,0.1575));
#1434=CARTESIAN_POINT('Origin',(-0.0900000000000001,1.24526412776453,0.1575));
#1435=CARTESIAN_POINT('',(-0.16525,1.24526412776453,0.35));
#1436=CARTESIAN_POINT('Origin',(-0.0900000000000001,1.24526412776453,0.35));
#1437=CARTESIAN_POINT('',(-0.16525,1.24526412776453,0.1575));
#1438=CARTESIAN_POINT('Origin',(-0.626828469846337,-1.12273653265525,0.1575));
#1439=CARTESIAN_POINT('',(-0.702078469846337,-1.12273653265525,0.35));
#1440=CARTESIAN_POINT('Origin',(-0.626828469846337,-1.12273653265525,0.35));
#1441=CARTESIAN_POINT('',(-0.702078469846337,-1.12273653265525,0.1575));
#1442=CARTESIAN_POINT('Origin',(-0.090000000000058,-1.24526412776453,0.1575));
#1443=CARTESIAN_POINT('',(-0.165250000000058,-1.24526412776453,0.35));
#1444=CARTESIAN_POINT('Origin',(-0.090000000000058,-1.24526412776453,0.35));
#1445=CARTESIAN_POINT('',(-0.165250000000058,-1.24526412776453,0.1575));
#1446=CARTESIAN_POINT('Origin',(-0.0900000000000001,0.,0.35));
#1447=CARTESIAN_POINT('Origin',(-0.09,-0.405872953041381,0.35));
#1448=CARTESIAN_POINT('Origin',(-0.0899999999999999,0.405872953041381,0.));
#1449=CARTESIAN_POINT('Origin',(-0.0899999999999999,0.405872953041381,0.35));
#1450=CARTESIAN_POINT('Origin',(-0.09,-0.405872953041381,0.));
#1451=CARTESIAN_POINT('Origin',(-0.0900000000000001,0.,0.35));
#1452=CARTESIAN_POINT('Origin',(-8.86055772656956E-16,0.,0.));
#1453=CARTESIAN_POINT('',(-0.449330708661418,-5.07342786521871E-17,2.0374606299213));
#1454=CARTESIAN_POINT('',(-0.449330708661418,-5.50271414120817E-17,0.));
#1455=CARTESIAN_POINT('',(-0.449330708661418,-2.9562456701289E-17,2.13891732283462));
#1456=CARTESIAN_POINT('Ctrl Pts',(-0.449330708661418,-2.0488859952482E-17,
2.13891732283462));
#1457=CARTESIAN_POINT('Ctrl Pts',(-0.449330708661418,-0.00637538412295221,
2.13891732283462));
#1458=CARTESIAN_POINT('Ctrl Pts',(-0.449181143018997,-0.0131720249540411,
2.13764208880262));
#1459=CARTESIAN_POINT('Ctrl Pts',(-0.448640514819251,-0.0256688517259382,
2.13246337771333));
#1460=CARTESIAN_POINT('Ctrl Pts',(-0.448257100859105,-0.031369491575503,
2.12856020035822));
#1461=CARTESIAN_POINT('Ctrl Pts',(-0.447536183965016,-0.0403712489329488,
2.11955844300078));
#1462=CARTESIAN_POINT('Ctrl Pts',(-0.447151698076277,-0.044274406767564,
2.11385781404121));
#1463=CARTESIAN_POINT('Ctrl Pts',(-0.446608614767611,-0.049453103440942,
2.10136102396494));
#1464=CARTESIAN_POINT('Ctrl Pts',(-0.446457971831555,-0.050728346456659,
2.09456439584587));
#1465=CARTESIAN_POINT('Ctrl Pts',(-0.446457971831555,-0.050728346456659,
2.08181355691004));
#1466=CARTESIAN_POINT('Ctrl Pts',(-0.446608614767611,-0.0494531034409421,
2.07501692879098));
#1467=CARTESIAN_POINT('Ctrl Pts',(-0.447151698076277,-0.0442744067675642,
2.0625201387147));
#1468=CARTESIAN_POINT('Ctrl Pts',(-0.447536183965015,-0.040371248932949,
2.05681950975514));
#1469=CARTESIAN_POINT('Ctrl Pts',(-0.448257100859105,-0.0313694915755031,
2.04781775239769));
#1470=CARTESIAN_POINT('Ctrl Pts',(-0.448640514819251,-0.0256688517259387,
2.04391457504258));
#1471=CARTESIAN_POINT('Ctrl Pts',(-0.449181143018997,-0.0131720249540413,
2.0387358639533));
#1472=CARTESIAN_POINT('Ctrl Pts',(-0.449330708661418,-0.00637538412295217,
2.0374606299213));
#1473=CARTESIAN_POINT('Ctrl Pts',(-0.449330708661418,4.09777199049639E-18,
2.0374606299213));
#1474=CARTESIAN_POINT('',(-0.449330708661418,5.50271414120817E-17,2.23818897637795));
#1475=CARTESIAN_POINT('',(-0.449330708661418,-5.50271414120817E-17,0.));
#1476=CARTESIAN_POINT('Origin',(-8.86055772656956E-16,0.,2.23818897637795));
#1477=CARTESIAN_POINT('',(-0.446457971831555,0.050728346456659,2.08818897637796));
#1478=CARTESIAN_POINT('Ctrl Pts',(-0.446457971831555,0.050728346456659,
2.08818897637796));
#1479=CARTESIAN_POINT('Ctrl Pts',(-0.446457971831555,0.050728346456659,
2.09456439584587));
#1480=CARTESIAN_POINT('Ctrl Pts',(-0.446608614767611,0.0494531034409421,
2.10136102396494));
#1481=CARTESIAN_POINT('Ctrl Pts',(-0.447151698076277,0.044274406767564,
2.11385781404121));
#1482=CARTESIAN_POINT('Ctrl Pts',(-0.447536183965016,0.0403712489329488,
2.11955844300078));
#1483=CARTESIAN_POINT('Ctrl Pts',(-0.448257100859105,0.031369491575503,
2.12856020035822));
#1484=CARTESIAN_POINT('Ctrl Pts',(-0.448640514819251,0.0256688517259386,
2.13246337771333));
#1485=CARTESIAN_POINT('Ctrl Pts',(-0.449181143018997,0.0131720249540414,
2.13764208880262));
#1486=CARTESIAN_POINT('Ctrl Pts',(-0.449330708661418,0.00637538412295224,
2.13891732283462));
#1487=CARTESIAN_POINT('Ctrl Pts',(-0.449330708661418,5.73688078669495E-17,
2.13891732283462));
#1488=CARTESIAN_POINT('Ctrl Pts',(-0.449330708661418,-3.96117959081318E-17,
2.0374606299213));
#1489=CARTESIAN_POINT('Ctrl Pts',(-0.449330708661418,0.00637538412295215,
2.0374606299213));
#1490=CARTESIAN_POINT('Ctrl Pts',(-0.449181143018997,0.0131720249540413,
2.0387358639533));
#1491=CARTESIAN_POINT('Ctrl Pts',(-0.448640514819251,0.0256688517259386,
2.04391457504258));
#1492=CARTESIAN_POINT('Ctrl Pts',(-0.448257100859105,0.0313694915755031,
2.04781775239769));
#1493=CARTESIAN_POINT('Ctrl Pts',(-0.447536183965015,0.040371248932949,
2.05681950975514));
#1494=CARTESIAN_POINT('Ctrl Pts',(-0.447151698076277,0.0442744067675642,
2.0625201387147));
#1495=CARTESIAN_POINT('Ctrl Pts',(-0.446608614767611,0.0494531034409421,
2.07501692879098));
#1496=CARTESIAN_POINT('Ctrl Pts',(-0.446457971831555,0.050728346456659,
2.08181355691004));
#1497=CARTESIAN_POINT('Ctrl Pts',(-0.446457971831555,0.050728346456659,
2.08818897637796));
#1498=CARTESIAN_POINT('Origin',(-8.74191357972564E-16,0.,2.23818897637795));
#1499=CARTESIAN_POINT('',(0.0354724409448796,-4.34412112610887E-18,2.23818897637795));
#1500=CARTESIAN_POINT('Origin',(2.82879542655074E-16,7.28120844459661E-32,
2.23818897637795));
#1501=CARTESIAN_POINT('Origin',(-1.04233070866135,0.,2.08818897637812));
#1502=CARTESIAN_POINT('',(-1.00533070866129,-2.78938798838576E-17,2.31595979081439));
#1503=CARTESIAN_POINT('',(-1.04233070866129,-2.88570147215479E-17,2.32382438359626));
#1504=CARTESIAN_POINT('Origin',(-1.00533070866135,0.,2.08818897637811));
#1505=CARTESIAN_POINT('Origin',(-0.992995301443335,0.,2.08818897637811));
#1506=CARTESIAN_POINT('',(-0.98065989422526,-2.48725764907017E-17,2.29128897637826));
#1507=CARTESIAN_POINT('',(-0.992995301443275,-2.63832281872796E-17,2.30362438359633));
#1508=CARTESIAN_POINT('Origin',(-0.980659894225316,0.,2.08818897637811));
#1509=CARTESIAN_POINT('Origin',(-0.846978028823157,0.,2.08818897637807));
#1510=CARTESIAN_POINT('',(-0.713296163420941,-2.48725764906957E-17,2.29128897637814));
#1511=CARTESIAN_POINT('',(-0.8469780288231,-2.48725764906957E-17,2.29128897637817));
#1512=CARTESIAN_POINT('Origin',(-0.713296163420997,0.,2.08818897637803));
#1513=CARTESIAN_POINT('Origin',(-0.677770128954564,0.,2.08818897637802));
#1514=CARTESIAN_POINT('',(-0.642244094488117,-6.21243071142199E-18,2.1389173228347));
#1515=CARTESIAN_POINT('',(-0.677770128954529,-1.55425036010559E-17,2.21510314960639));
#1516=CARTESIAN_POINT('Origin',(-0.642244094488132,0.,2.08818897637801));
#1517=CARTESIAN_POINT('Origin',(-0.540787401574746,0.,2.08818897637798));
#1518=CARTESIAN_POINT('',(-0.540787401574732,-6.21243071141854E-18,2.13891732283464));
#1519=CARTESIAN_POINT('Origin',(2.19231645557681E-17,7.28120844459661E-32,
2.79168897637795));
#1520=CARTESIAN_POINT('',(0.2435,-2.98201495592376E-17,2.83818897637795));
#1521=CARTESIAN_POINT('Origin',(-8.73492636194526E-32,7.28120844459661E-32,
2.83818897637795));
#1522=CARTESIAN_POINT('',(0.223732239764688,-2.73992971293889E-17,2.74518897637795));
#1523=CARTESIAN_POINT('',(0.233616119882344,-2.86097233443132E-17,2.79168897637795));
#1524=CARTESIAN_POINT('Origin',(4.38463291115363E-17,7.28120844459661E-32,
2.74518897637795));
#1525=CARTESIAN_POINT('Origin',(4.87100279020326E-17,7.28120844459661E-32,
2.73487285649559));
#1526=CARTESIAN_POINT('',(0.2031,-2.48725764906823E-17,2.72455673661323));
#1527=CARTESIAN_POINT('',(0.213416119882344,-2.61359368100356E-17,2.73487285649559));
#1528=CARTESIAN_POINT('Origin',(5.35737266925289E-17,7.28120844459661E-32,
2.72455673661323));
#1529=CARTESIAN_POINT('Origin',(1.16352236407301E-16,7.28120844459661E-32,
2.59140074563797));
#1530=CARTESIAN_POINT('',(0.2031,-2.48725764906823E-17,2.45824475466272));
#1531=CARTESIAN_POINT('',(0.2031,-2.48725764906823E-17,2.59140074563797));
#1532=CARTESIAN_POINT('Origin',(1.79130746122073E-16,7.28120844459661E-32,
2.45824475466272));
#1533=CARTESIAN_POINT('Origin',(1.97557051484082E-16,7.28120844459661E-32,
2.4191617474101));
#1534=CARTESIAN_POINT('',(0.035472440944877,-4.34412112610855E-18,2.38007874015748));
#1535=CARTESIAN_POINT('',(0.119286220472438,-1.46083488083954E-17,2.4191617474101));
#1536=CARTESIAN_POINT('Origin',(2.15983356846092E-16,7.28120844459661E-32,
2.38007874015748));
#1537=CARTESIAN_POINT('Origin',(2.49431449750583E-16,7.28120844459661E-32,
2.30913385826772));
#1538=CARTESIAN_POINT('',(0.0354724409448796,-4.34412112610887E-18,2.30913385826772));
#1539=CARTESIAN_POINT('Origin',(-1.74838271594513E-16,0.,2.83818897637795));
#1540=CARTESIAN_POINT('Origin',(-1.74838271594513E-16,0.,0.));
#1541=UNCERTAINTY_MEASURE_WITH_UNIT(LENGTH_MEASURE(0.000393700787401575),
#1546,'DISTANCE_ACCURACY_VALUE',
'Maximum model space distance between geometric entities at asserted c
onnectivities');
#1542=UNCERTAINTY_MEASURE_WITH_UNIT(LENGTH_MEASURE(0.000393700787401575),
#1546,'DISTANCE_ACCURACY_VALUE',
'Maximum model space distance between geometric entities at asserted c
onnectivities');
#1543=(
GEOMETRIC_REPRESENTATION_CONTEXT(3)
GLOBAL_UNCERTAINTY_ASSIGNED_CONTEXT((#1541))
GLOBAL_UNIT_ASSIGNED_CONTEXT((#1546,#1550,#1551))
REPRESENTATION_CONTEXT('','3D')
);
#1544=(
GEOMETRIC_REPRESENTATION_CONTEXT(3)
GLOBAL_UNCERTAINTY_ASSIGNED_CONTEXT((#1542))
GLOBAL_UNIT_ASSIGNED_CONTEXT((#1546,#1550,#1551))
REPRESENTATION_CONTEXT('','3D')
);
#1545=DIMENSIONAL_EXPONENTS(1.,0.,0.,0.,0.,0.,0.);
#1546=(
CONVERSION_BASED_UNIT('inch',#1549)
LENGTH_UNIT()
NAMED_UNIT(#1545)
);
#1547=(
LENGTH_UNIT()
NAMED_UNIT(*)
SI_UNIT(.MILLI.,.METRE.)
);
#1548=(
LENGTH_UNIT()
NAMED_UNIT(*)
SI_UNIT($,.METRE.)
);
#1549=LENGTH_MEASURE_WITH_UNIT(LENGTH_MEASURE(25.4),#1547);
#1550=(
NAMED_UNIT(*)
PLANE_ANGLE_UNIT()
SI_UNIT($,.RADIAN.)
);
#1551=(
NAMED_UNIT(*)
SI_UNIT($,.STERADIAN.)
SOLID_ANGLE_UNIT()
);
#1552=SHAPE_DEFINITION_REPRESENTATION(#1553,#1554);
#1553=PRODUCT_DEFINITION_SHAPE('',$,#1556);
#1554=SHAPE_REPRESENTATION('',(#843),#1543);
#1555=PRODUCT_DEFINITION_CONTEXT('part definition',#1560,'design');
#1556=PRODUCT_DEFINITION('Chamber','Chamber',#1557,#1555);
#1557=PRODUCT_DEFINITION_FORMATION('',$,#1562);
#1558=PRODUCT_RELATED_PRODUCT_CATEGORY('Chamber','Chamber',(#1562));
#1559=APPLICATION_PROTOCOL_DEFINITION('international standard',
'automotive_design',2009,#1560);
#1560=APPLICATION_CONTEXT(
'Core Data for Automotive Mechanical Design Process');
#1561=PRODUCT_CONTEXT('part definition',#1560,'mechanical');
#1562=PRODUCT('Chamber','Chamber',$,(#1561));
#1563=PRESENTATION_STYLE_ASSIGNMENT((#1565));
#1564=PRESENTATION_STYLE_ASSIGNMENT((#1566));
#1565=SURFACE_STYLE_USAGE(.BOTH.,#1567);
#1566=SURFACE_STYLE_USAGE(.BOTH.,#1568);
#1567=SURFACE_SIDE_STYLE('',(#1569));
#1568=SURFACE_SIDE_STYLE('',(#1570));
#1569=SURFACE_STYLE_FILL_AREA(#1571);
#1570=SURFACE_STYLE_FILL_AREA(#1572);
#1571=FILL_AREA_STYLE('Steel - Satin',(#1573));
#1572=FILL_AREA_STYLE('Stainless Steel - Polished',(#1574));
#1573=FILL_AREA_STYLE_COLOUR('Steel - Satin',#1575);
#1574=FILL_AREA_STYLE_COLOUR('Stainless Steel - Polished',#1576);
#1575=COLOUR_RGB('Steel - Satin',0.627450980392157,0.627450980392157,0.627450980392157);
#1576=COLOUR_RGB('Stainless Steel - Polished',0.796078431372549,0.796078431372549,
0.796078431372549);
ENDSEC;
END-ISO-10303-21;
